<svg width="52" height="52" viewBox="0 0 52 52" fill="none" xmlns="http://www.w3.org/2000/svg">
<path d="M13.1139 23.1701C12.973 23.2494 12.7381 23.3524 12.4092 23.4791C12.0804 23.59 11.8298 23.6772 11.6575 23.7406C10.9685 23.9624 10.5379 24.1208 10.3656 24.2159V21.4826C10.898 21.2608 11.5401 20.9439 12.2918 20.5319C13.0591 20.1041 13.5994 19.7159 13.9126 19.3673H16.7548V38.6192H13.1139V23.1701Z" fill="url(#paint0_linear)"/>
<path d="M24.0749 38.952C22.4149 38.952 21.1465 38.4529 20.2695 37.4546C19.4082 36.4405 18.9776 35.0857 18.9776 33.3903V24.7626C18.9776 23.0038 19.4004 21.6252 20.246 20.627C21.0917 19.6129 22.368 19.1058 24.0749 19.1058C25.7662 19.1058 27.0346 19.6129 27.8802 20.627C28.7259 21.6252 29.1487 23.0038 29.1487 24.7626V33.3903C29.1487 35.0699 28.7102 36.4167 27.8333 37.4308C26.9563 38.4449 25.7035 38.952 24.0749 38.952ZM24.0749 35.7196C24.9988 35.7196 25.4608 34.9194 25.4608 33.319V24.8339C25.4608 24.1208 25.3668 23.5267 25.1789 23.0513C25.0066 22.5759 24.6386 22.3383 24.0749 22.3383C23.4798 22.3383 23.0961 22.5759 22.9239 23.0513C22.7516 23.5108 22.6655 24.105 22.6655 24.8339V33.319C22.6655 34.9194 23.1353 35.7196 24.0749 35.7196Z" fill="url(#paint1_linear)"/>
<path d="M35.5372 38.952C33.8773 38.952 32.6088 38.4529 31.7319 37.4546C30.8706 36.4405 30.4399 35.0857 30.4399 33.3903V24.7626C30.4399 23.0038 30.8627 21.6252 31.7084 20.627C32.554 19.6129 33.8303 19.1058 35.5372 19.1058C37.2285 19.1058 38.4969 19.6129 39.3426 20.627C40.1882 21.6252 40.611 23.0038 40.611 24.7626V33.3903C40.611 35.0699 40.1726 36.4167 39.2956 37.4308C38.4186 38.4449 37.1658 38.952 35.5372 38.952ZM35.5372 35.7196C36.4612 35.7196 36.9231 34.9194 36.9231 33.319V24.8339C36.9231 24.1208 36.8292 23.5267 36.6412 23.0513C36.469 22.5759 36.101 22.3383 35.5372 22.3383C34.9421 22.3383 34.5585 22.5759 34.3862 23.0513C34.2139 23.5108 34.1278 24.105 34.1278 24.8339V33.319C34.1278 34.9194 34.5976 35.7196 35.5372 35.7196Z" fill="url(#paint2_linear)"/>
<path d="M2.6012 17.162C2.81032 16.5617 3.14213 16.133 3.56567 15.916C3.75217 15.8205 4.11682 15.743 4.29793 15.7603L4.44556 15.7745L4.34629 15.8574C4.19488 15.9839 4.13555 16.0941 3.78672 16.8967C3.30363 18.0083 3.02898 18.3738 2.59669 18.4806L2.41873 18.5246L2.30416 18.846C2.03134 19.6112 1.79167 20.489 1.6144 21.3722C1.51727 21.8562 1.51669 21.8622 1.58164 21.7111C1.601 21.6661 1.68257 21.5074 1.76291 21.3584C1.88014 21.1411 1.92438 21.026 1.98685 20.7756C2.07944 20.4045 2.23319 20.0055 2.37637 19.7648C2.78551 19.0768 3.40021 18.8535 4.09768 19.1393L4.25699 19.2047L4.14825 19.2713C4.01371 19.3537 3.8455 19.5696 3.57231 20.0105C3.15162 20.6894 2.87858 21.0155 2.61539 21.1533C2.471 21.2289 2.17638 21.2673 2.08032 21.2231C2.02165 21.1962 2.01033 21.2063 1.89697 21.3881C1.68264 21.7316 1.49302 22.0899 1.46025 22.2131C1.41351 22.3888 1.27272 23.4521 1.2189 24.0357C1.13885 24.9036 1.08255 26.1689 1.09524 26.8145C1.09763 26.9365 1.0954 26.9428 1.22479 26.4456C1.31336 26.1052 1.33499 25.9787 1.35942 25.6574C1.45463 24.4067 1.8003 23.5962 2.42757 23.1528C2.5906 23.0376 2.67254 23.0023 2.92511 22.9385L3.22748 22.8622L3.13937 22.9782C3.04644 23.1005 2.93824 23.3787 2.53785 24.5251C2.2963 25.2167 2.20675 25.414 2.01553 25.6763C1.86224 25.8865 1.74004 25.9911 1.56413 26.0625L1.43748 26.114L1.30528 26.541C1.13109 27.1038 1.10396 27.3097 1.12461 27.9114C1.16194 28.9982 1.30234 30.3693 1.4884 31.4638C1.57159 31.9531 1.57783 31.9562 1.59696 31.5166C1.61225 31.1649 1.60914 31.0797 1.56625 30.6769C1.48134 29.8791 1.5 29.3138 1.63098 28.7172C1.76772 28.0943 1.98603 27.6072 2.32515 27.1682C2.43494 27.0261 2.69296 26.7601 2.72793 26.7529C2.73218 26.7521 2.70566 26.8331 2.66902 26.933C2.58333 27.1666 2.54138 27.4384 2.48915 28.0988C2.39126 29.3362 2.30645 29.8922 2.14104 30.3809C2.05896 30.6234 1.89154 30.9325 1.79198 31.0255C1.73215 31.0813 1.72683 31.1035 1.70178 31.4005C1.65646 31.9378 1.65844 32.1065 1.71531 32.5488C1.75628 32.8675 1.79284 33.0529 1.89994 33.485C2.12623 34.3981 2.392 35.273 2.6922 36.0928C2.83658 36.4871 3.09353 37.1268 3.10005 37.1082C3.11225 37.0733 2.92474 36.0456 2.89443 35.9813C2.84837 35.8836 2.72826 35.4959 2.6595 35.223C2.58153 34.9135 2.48921 34.0568 2.49889 33.7324C2.51993 33.0263 2.64315 32.3443 2.86035 31.7317C2.94623 31.4894 3.11956 31.0886 3.11177 31.1503C3.10926 31.1703 3.09724 31.2624 3.08508 31.3549C3.05041 31.6186 3.0716 31.9989 3.1599 32.6973C3.3593 34.2743 3.34329 35.2865 3.10941 35.8902C3.05263 36.0368 3.0514 36.0498 3.07401 36.2621C3.12058 36.6996 3.23651 37.2177 3.38676 37.6597C3.52691 38.0721 3.73355 38.4892 4.13398 39.1679C4.36527 39.5599 4.92055 40.3995 4.93059 40.3724C4.93397 40.3633 4.89742 40.2548 4.84934 40.1312C4.78604 39.9686 4.70023 39.8163 4.53826 39.579C4.28611 39.2097 4.12566 38.874 3.9977 38.4479C3.90311 38.1329 3.8068 37.6539 3.77138 37.3222C3.7252 36.8896 3.72222 36.2117 3.76435 35.7229C3.78158 35.523 3.85657 34.9788 3.86714 34.9769C3.87289 34.9758 3.89219 35.1032 3.91003 35.26C3.94685 35.5835 3.99184 35.7411 4.28154 36.561C4.58807 37.4286 4.72663 37.9428 4.80433 38.5011C4.85473 38.8635 4.86698 39.3192 4.83298 39.5668L4.81395 39.7053L4.91679 40.0023C5.05329 40.3967 5.16437 40.6291 5.32358 40.8535C5.60064 41.2439 6.25861 41.8932 6.76627 42.2771C6.88678 42.3682 6.98933 42.442 6.99417 42.441C6.99902 42.44 6.95531 42.3607 6.89706 42.2648C6.83266 42.1587 6.74015 42.0505 6.66113 41.9887C6.24583 41.6638 5.9385 41.1127 5.75233 40.3592C5.65649 39.9711 5.56447 39.1116 5.57257 38.6798L5.57789 38.3957L5.60586 38.5293C5.65174 38.7485 5.76337 39.0054 5.98842 39.4094C6.55805 40.4322 6.73448 40.9097 6.79987 41.6057L6.83174 41.9449L6.91786 42.1032C7.02753 42.3049 7.21151 42.5478 7.3279 42.6445C7.50883 42.7948 8.05683 43.0611 8.47658 43.2027C8.66875 43.2675 8.74336 43.3664 8.7669 43.5875C8.79707 43.871 8.73138 44.0679 8.5975 44.0953C8.52619 44.1098 8.01616 43.9012 7.70446 43.73C7.04713 43.3689 6.31255 42.7846 5.73898 42.1664C5.63686 42.0563 5.51159 41.9323 5.4606 41.8908C5.32555 41.781 5.08613 41.6766 4.92647 41.658C4.79668 41.6428 4.77978 41.6486 4.67514 41.7439C4.40825 41.9871 4.03784 42.1061 3.73373 42.0464C3.54018 42.0084 3.28052 41.8554 3.07296 41.657C2.88901 41.4813 2.4901 40.9057 2.334 40.591C2.16759 40.2554 2.15563 40.2122 2.25528 40.3067C2.38894 40.4335 2.5398 40.4762 2.87901 40.4833C3.62945 40.499 3.86277 40.5476 4.16326 40.7509C4.36646 40.8883 4.56533 41.1154 4.67361 41.3338C4.72799 41.4434 4.73383 41.4464 4.90969 41.4521C5.00886 41.4553 5.09318 41.4494 5.09707 41.4389C5.10094 41.4284 4.99782 41.2772 4.86792 41.1027C4.43314 40.5189 3.94044 39.7061 3.50508 38.8545C3.33325 38.5183 3.25146 38.3847 3.15456 38.2819C2.97013 38.0861 2.90858 38.0523 2.724 38.0452C2.26344 38.0277 1.89393 37.7983 1.56016 37.3227C1.3784 37.0637 1.23613 36.7828 1.08015 36.3748C0.934791 35.9946 0.828171 35.6293 0.74436 35.2244C0.711503 35.0657 0.678824 34.9092 0.671739 34.8766C0.652518 34.7882 0.661137 34.8004 0.740264 34.9734C0.828681 35.1667 0.961097 35.3126 1.27334 35.5605C1.64274 35.8538 1.98843 36.1576 2.12232 36.3066C2.47224 36.6962 2.73136 37.1971 2.83985 37.6937C2.86137 37.7922 2.88571 37.8306 2.97493 37.9067C3.03479 37.9578 3.08587 37.994 3.08844 37.987C3.09101 37.9801 3.02889 37.8222 2.9504 37.6362C2.62395 36.8624 2.37554 36.1612 2.10426 35.2478C1.8731 34.4694 1.81528 34.2946 1.67667 33.9551C1.49091 33.5002 1.40136 33.346 1.23071 33.1869C0.718173 32.7091 0.387995 32.0374 0.192006 31.0737C0.0712833 30.4801 0.0110758 29.5614 0.0512658 28.9265L0.0660249 28.6935L0.0965428 28.8642C0.148655 29.1556 0.235326 29.3776 0.556951 30.044C0.892004 30.7381 1.03803 31.0648 1.12497 31.3149C1.31788 31.8696 1.4229 32.4057 1.42941 32.8691L1.43332 33.1471L1.52317 33.3322C1.66189 33.6181 1.67741 33.6245 1.62187 33.3729C1.32894 32.0462 1.12077 30.5764 1.0193 29.1182L0.979255 28.5426L0.716779 27.341L0.589418 27.0941C-0.0207963 25.911 -0.163937 24.3711 0.191482 22.8128C0.28361 22.4089 0.345667 22.1933 0.337692 22.3049C0.311193 22.6753 0.346984 22.929 0.551592 23.8212C0.750469 24.6883 0.844845 25.2197 0.884569 25.696C0.932194 26.2673 0.91631 26.6695 0.830907 27.0546L0.797297 27.2061L0.864251 27.5044C0.901082 27.6685 0.935689 27.8092 0.941148 27.8171C0.952292 27.8331 0.952799 27.7951 0.94734 27.3461C0.932923 26.1574 0.985397 25.1297 1.13081 23.7529C1.20594 23.0415 1.21465 22.6976 1.17428 22.0351C1.15302 21.6861 1.14637 21.6407 1.08623 21.4339C0.978841 21.0645 0.922096 20.7339 0.878552 20.2239C0.856484 19.9655 0.842258 19.6692 0.846311 19.5527C0.872354 18.8034 1.03983 18.06 1.32209 17.4408C1.42476 17.2156 1.64379 16.8197 1.66853 16.8147C1.67385 16.8136 1.66103 16.8887 1.64004 16.9817C1.57705 17.2604 1.57166 17.6177 1.61642 18.5413C1.65644 19.3669 1.64391 20.0176 1.57883 20.4949C1.51937 20.9308 1.45782 21.1676 1.33842 21.4199C1.239 21.63 1.23925 21.6265 1.27954 22.2189C1.2963 22.4654 1.30377 22.5171 1.31427 22.4595C1.53905 21.2234 1.66051 20.7348 2.26273 18.6441C2.29032 18.5483 2.33471 18.335 2.36135 18.17C2.4335 17.7233 2.49343 17.4713 2.6012 17.162Z" fill="url(#paint3_linear)"/>
<path d="M49.3988 17.162C49.1897 16.5617 48.8579 16.133 48.4343 15.916C48.2478 15.8205 47.8832 15.743 47.7021 15.7603L47.5544 15.7745L47.6537 15.8574C47.8051 15.9839 47.8645 16.0941 48.2133 16.8967C48.6964 18.0083 48.971 18.3738 49.4033 18.4806L49.5813 18.5246L49.6958 18.846C49.9687 19.6112 50.2083 20.489 50.3856 21.3722C50.4827 21.8562 50.4833 21.8622 50.4184 21.7111C50.399 21.6661 50.3174 21.5074 50.2371 21.3584C50.1199 21.1411 50.0756 21.026 50.0131 20.7756C49.9206 20.4045 49.7668 20.0055 49.6236 19.7648C49.2145 19.0768 48.5998 18.8535 47.9023 19.1393L47.743 19.2047L47.8517 19.2713C47.9863 19.3537 48.1545 19.5696 48.4277 20.0105C48.8484 20.6894 49.1214 21.0155 49.3846 21.1533C49.529 21.2289 49.8236 21.2673 49.9197 21.2231C49.9784 21.1962 49.9897 21.2063 50.103 21.3881C50.3174 21.7316 50.507 22.0899 50.5398 22.2131C50.5865 22.3888 50.7273 23.4521 50.7811 24.0357C50.8612 24.9036 50.9175 26.1689 50.9048 26.8145C50.9024 26.9365 50.9046 26.9428 50.7752 26.4456C50.6866 26.1052 50.665 25.9787 50.6406 25.6574C50.5454 24.4067 50.1997 23.5962 49.5724 23.1528C49.4094 23.0376 49.3275 23.0023 49.0749 22.9385L48.7725 22.8622L48.8606 22.9782C48.9536 23.1005 49.0618 23.3787 49.4622 24.5251C49.7037 25.2167 49.7932 25.414 49.9845 25.6763C50.1378 25.8865 50.26 25.9911 50.4359 26.0625L50.5625 26.114L50.6947 26.541C50.8689 27.1038 50.896 27.3097 50.8754 27.9114C50.8381 28.9982 50.6977 30.3693 50.5116 31.4638C50.4284 31.9531 50.4222 31.9562 50.403 31.5166C50.3878 31.1649 50.3909 31.0797 50.4337 30.6769C50.5187 29.8791 50.5 29.3138 50.369 28.7172C50.2323 28.0943 50.014 27.6072 49.6749 27.1682C49.5651 27.0261 49.307 26.7601 49.2721 26.7529C49.2678 26.7521 49.2943 26.8331 49.331 26.933C49.4167 27.1666 49.4586 27.4384 49.5108 28.0988C49.6087 29.3362 49.6936 29.8922 49.859 30.3809C49.941 30.6234 50.1085 30.9325 50.208 31.0255C50.2678 31.0813 50.2732 31.1035 50.2982 31.4005C50.3436 31.9378 50.3416 32.1065 50.2847 32.5488C50.2437 32.8675 50.2072 33.0529 50.1001 33.485C49.8738 34.3981 49.608 35.273 49.3078 36.0928C49.1634 36.4871 48.9065 37.1268 48.9 37.1082C48.8878 37.0733 49.0753 36.0456 49.1056 35.9813C49.1516 35.8836 49.2717 35.4959 49.3405 35.223C49.4185 34.9135 49.5108 34.0568 49.5011 33.7324C49.4801 33.0263 49.3569 32.3443 49.1397 31.7317C49.0538 31.4894 48.8804 31.0886 48.8882 31.1503C48.8907 31.1703 48.9028 31.2624 48.9149 31.3549C48.9496 31.6186 48.9284 31.9989 48.8401 32.6973C48.6407 34.2743 48.6567 35.2865 48.8906 35.8902C48.9474 36.0368 48.9486 36.0498 48.926 36.2621C48.8794 36.6996 48.7635 37.2177 48.6132 37.6597C48.4731 38.0721 48.2664 38.4892 47.866 39.1679C47.6347 39.5599 47.0795 40.3995 47.0694 40.3724C47.066 40.3633 47.1026 40.2548 47.1507 40.1312C47.214 39.9686 47.2998 39.8163 47.4617 39.579C47.7139 39.2097 47.8743 38.874 48.0023 38.4479C48.0969 38.1329 48.1932 37.6539 48.2286 37.3222C48.2748 36.8896 48.2778 36.2117 48.2356 35.7229C48.2184 35.523 48.1434 34.9788 48.1329 34.9769C48.1271 34.9758 48.1078 35.1032 48.09 35.26C48.0532 35.5835 48.0082 35.7411 47.7185 36.561C47.4119 37.4286 47.2734 37.9428 47.1957 38.5011C47.1453 38.8635 47.133 39.3192 47.167 39.5668L47.1861 39.7053L47.0832 40.0023C46.9467 40.3967 46.8356 40.6291 46.6764 40.8535C46.3994 41.2439 45.7414 41.8932 45.2337 42.2771C45.1132 42.3682 45.0107 42.442 45.0058 42.441C45.001 42.44 45.0447 42.3607 45.1029 42.2648C45.1673 42.1587 45.2599 42.0505 45.3389 41.9887C45.7542 41.6638 46.0615 41.1127 46.2477 40.3592C46.3435 39.9711 46.4355 39.1116 46.4274 38.6798L46.4221 38.3957L46.3941 38.5293C46.3483 38.7485 46.2366 39.0054 46.0116 39.4094C45.442 40.4322 45.2655 40.9097 45.2001 41.6057L45.1683 41.9449L45.0821 42.1032C44.9725 42.3049 44.7885 42.5478 44.6721 42.6445C44.4912 42.7948 43.9432 43.0611 43.5234 43.2027C43.3312 43.2675 43.2566 43.3664 43.2331 43.5875C43.2029 43.871 43.2686 44.0679 43.4025 44.0953C43.4738 44.1098 43.9838 43.9012 44.2955 43.73C44.9529 43.3689 45.6874 42.7846 46.261 42.1664C46.3631 42.0563 46.4884 41.9323 46.5394 41.8908C46.6744 41.781 46.9139 41.6766 47.0735 41.658C47.2033 41.6428 47.2202 41.6486 47.3249 41.7439C47.5918 41.9871 47.9622 42.1061 48.2663 42.0464C48.4598 42.0084 48.7195 41.8554 48.927 41.657C49.111 41.4813 49.5099 40.9057 49.666 40.591C49.8324 40.2554 49.8444 40.2122 49.7447 40.3067C49.6111 40.4335 49.4602 40.4762 49.121 40.4833C48.3706 40.499 48.1372 40.5476 47.8367 40.7509C47.6335 40.8883 47.4347 41.1154 47.3264 41.3338C47.272 41.4434 47.2662 41.4464 47.0903 41.4521C46.9911 41.4553 46.9068 41.4494 46.9029 41.4389C46.8991 41.4284 47.0022 41.2772 47.1321 41.1027C47.5669 40.5189 48.0596 39.7061 48.4949 38.8545C48.6668 38.5183 48.7485 38.3847 48.8454 38.2819C49.0299 38.0861 49.0914 38.0523 49.276 38.0452C49.7366 38.0277 50.1061 37.7983 50.4398 37.3227C50.6216 37.0637 50.7639 36.7828 50.9198 36.3748C51.0652 35.9946 51.1718 35.6293 51.2556 35.2244C51.2885 35.0657 51.3212 34.9092 51.3283 34.8766C51.3475 34.7882 51.3389 34.8004 51.2597 34.9734C51.1713 35.1667 51.0389 35.3126 50.7267 35.5605C50.3573 35.8538 50.0116 36.1576 49.8777 36.3066C49.5278 36.6962 49.2686 37.1971 49.1602 37.6937C49.1386 37.7922 49.1143 37.8306 49.0251 37.9067C48.9652 37.9578 48.9141 37.994 48.9116 37.987C48.909 37.9801 48.9711 37.8222 49.0496 37.6362C49.3761 36.8624 49.6245 36.1612 49.8957 35.2478C50.1269 34.4694 50.1847 34.2946 50.3233 33.9551C50.5091 33.5002 50.5986 33.346 50.7693 33.1869C51.2818 32.7091 51.612 32.0374 51.808 31.0737C51.9287 30.4801 51.9889 29.5614 51.9487 28.9265L51.934 28.6935L51.9035 28.8642C51.8513 29.1556 51.7647 29.3776 51.4431 30.044C51.108 30.7381 50.962 31.0648 50.875 31.3149C50.6821 31.8696 50.5771 32.4057 50.5706 32.8691L50.5667 33.1471L50.4768 33.3322C50.3381 33.6181 50.3226 33.6245 50.3781 33.3729C50.6711 32.0462 50.8792 30.5764 50.9807 29.1182L51.0207 28.5426L51.2832 27.341L51.4106 27.0941C52.0208 25.911 52.1639 24.3711 51.8085 22.8128C51.7164 22.4089 51.6543 22.1933 51.6623 22.3049C51.6888 22.6753 51.653 22.929 51.4484 23.8212C51.2495 24.6883 51.1552 25.2197 51.1154 25.696C51.0678 26.2673 51.0837 26.6695 51.1691 27.0546L51.2027 27.2061L51.1357 27.5044C51.0989 27.6685 51.0643 27.8092 51.0589 27.8171C51.0477 27.8331 51.0472 27.7951 51.0527 27.3461C51.0671 26.1574 51.0146 25.1297 50.8692 23.7529C50.7941 23.0415 50.7854 22.6976 50.8257 22.0351C50.847 21.6861 50.8536 21.6407 50.9138 21.4339C51.0212 21.0645 51.0779 20.7339 51.1214 20.2239C51.1435 19.9655 51.1577 19.6692 51.1537 19.5527C51.1276 18.8034 50.9602 18.06 50.6779 17.4408C50.5752 17.2156 50.3562 16.8197 50.3315 16.8147C50.3261 16.8136 50.339 16.8887 50.36 16.9817C50.4229 17.2604 50.4283 17.6177 50.3836 18.5413C50.3436 19.3669 50.3561 20.0176 50.4212 20.4949C50.4806 20.9308 50.5422 21.1676 50.6616 21.4199C50.761 21.63 50.7607 21.6265 50.7205 22.2189C50.7037 22.4654 50.6962 22.5171 50.6857 22.4595C50.461 21.2234 50.3395 20.7348 49.7373 18.6441C49.7097 18.5483 49.6653 18.335 49.6387 18.17C49.5665 17.7233 49.5066 17.4713 49.3988 17.162Z" fill="url(#paint4_linear)"/>
<path d="M20.0124 46.843C20.0191 46.843 20.0225 46.8532 20.0225 46.8736C20.0225 46.8939 20.0191 46.9041 20.0124 46.9041C19.9015 46.9041 19.8125 46.9024 19.7453 46.899L19.3825 46.8939L19.0298 46.899C18.9694 46.9024 18.8837 46.9041 18.7729 46.9041C18.7661 46.9041 18.7628 46.8939 18.7628 46.8736C18.7628 46.8532 18.7661 46.843 18.7729 46.843C18.9207 46.843 19.0198 46.826 19.0701 46.792C19.1205 46.758 19.1457 46.6866 19.1457 46.5778L19.1407 46.4912L19.0399 44.3294L17.9666 46.8685C17.9599 46.882 17.9465 46.8888 17.9263 46.8888C17.9095 46.8888 17.8944 46.882 17.881 46.8685L16.6213 44.3498L16.5759 46.2872C16.5726 46.4674 16.6062 46.605 16.6767 46.7002C16.7506 46.7954 16.8598 46.843 17.0042 46.843C17.0143 46.843 17.0194 46.8532 17.0194 46.8736C17.0194 46.8939 17.0143 46.9041 17.0042 46.9041C16.9135 46.9041 16.843 46.9024 16.7926 46.899L16.5155 46.8939L16.2182 46.899C16.1678 46.9024 16.0973 46.9041 16.0066 46.9041C15.9965 46.9041 15.9914 46.8939 15.9914 46.8736C15.9914 46.8532 15.9965 46.843 16.0066 46.843C16.1443 46.843 16.2501 46.7954 16.324 46.7002C16.4013 46.605 16.4416 46.4674 16.4449 46.2872L16.4903 44.0949C16.4298 43.9862 16.3626 43.9063 16.2887 43.8553C16.2182 43.8043 16.1359 43.7788 16.0418 43.7788C16.0317 43.7788 16.0267 43.7686 16.0267 43.7482C16.0267 43.7278 16.0317 43.7176 16.0418 43.7176L16.2585 43.7227C16.3022 43.7261 16.3593 43.7278 16.4298 43.7278L16.6666 43.7227C16.6935 43.7193 16.7271 43.7176 16.7674 43.7176C16.8111 43.7176 16.8464 43.7346 16.8732 43.7686C16.9001 43.7992 16.9421 43.8706 16.9992 43.9828L18.1077 46.17L19.1104 43.8451C19.1306 43.7975 19.1524 43.7652 19.176 43.7482C19.1995 43.7278 19.228 43.7176 19.2616 43.7176C19.2851 43.7176 19.3154 43.7193 19.3523 43.7227C19.3893 43.7261 19.4346 43.7278 19.4884 43.7278L19.7605 43.7227C19.8041 43.7193 19.8696 43.7176 19.957 43.7176C19.9637 43.7176 19.967 43.7278 19.967 43.7482C19.967 43.7686 19.9637 43.7788 19.957 43.7788C19.7957 43.7788 19.6782 43.8094 19.6043 43.8706C19.5337 43.9284 19.5018 44.0252 19.5085 44.1612L19.6244 46.4912C19.6311 46.5965 19.6429 46.673 19.6597 46.7206C19.6798 46.7682 19.7151 46.8005 19.7655 46.8175C19.8159 46.8345 19.8982 46.843 20.0124 46.843Z" fill="url(#paint5_linear)"/>
<path d="M23.7139 46.843C23.7307 46.843 23.7391 46.8532 23.7391 46.8736C23.7391 46.8939 23.7307 46.9041 23.7139 46.9041C23.6501 46.9041 23.5477 46.9007 23.4066 46.8939C23.2655 46.8871 23.163 46.8837 23.0992 46.8837C23.0152 46.8837 22.9161 46.8871 22.8019 46.8939C22.6877 46.9007 22.5987 46.9041 22.5349 46.9041C22.5214 46.9041 22.5147 46.8939 22.5147 46.8736C22.5147 46.8532 22.5214 46.843 22.5349 46.843C22.6323 46.843 22.7028 46.8328 22.7465 46.8124C22.7935 46.7886 22.817 46.7512 22.817 46.7002C22.817 46.6492 22.7885 46.5625 22.7314 46.4402L22.1872 45.3236H21.2752L20.8872 46.2057C20.8435 46.3076 20.8217 46.3994 20.8217 46.481C20.8217 46.5999 20.8637 46.69 20.9476 46.7512C21.0316 46.8124 21.1492 46.843 21.3004 46.843C21.3171 46.843 21.3255 46.8532 21.3255 46.8736C21.3255 46.8939 21.3171 46.9041 21.3004 46.9041C21.2399 46.9041 21.1525 46.9007 21.0383 46.8939C20.9107 46.8871 20.7998 46.8837 20.7058 46.8837C20.6151 46.8837 20.5093 46.8871 20.3883 46.8939C20.2808 46.9007 20.1918 46.9041 20.1213 46.9041C20.1045 46.9041 20.0961 46.8939 20.0961 46.8736C20.0961 46.8532 20.1045 46.843 20.1213 46.843C20.2153 46.843 20.2943 46.8243 20.3581 46.7869C20.4219 46.7495 20.4841 46.6832 20.5445 46.588C20.605 46.4895 20.6772 46.345 20.7612 46.1547L21.8445 43.687C21.8513 43.6768 21.8664 43.6717 21.8899 43.6717C21.9134 43.6717 21.9268 43.6768 21.9302 43.687L23.1647 46.2057C23.2823 46.4504 23.3797 46.6186 23.457 46.7104C23.5376 46.7988 23.6232 46.843 23.7139 46.843ZM21.3306 45.1962H22.1267L21.7085 44.3396L21.3306 45.1962Z" fill="url(#paint6_linear)"/>
<path d="M27.0191 46.843C27.0291 46.843 27.0342 46.8532 27.0342 46.8736C27.0342 46.8939 27.0291 46.9041 27.0191 46.9041H26.4547L26.2582 46.9092C26.2112 46.9092 26.1709 46.899 26.1373 46.8786C26.1037 46.8583 26.0651 46.8209 26.0214 46.7665C25.9777 46.7121 25.8971 46.605 25.7795 46.4453L25.5729 46.1649L24.8725 45.237L24.7466 45.3695V46.4912C24.7466 46.5965 24.755 46.673 24.7718 46.7206C24.7886 46.7682 24.8222 46.8005 24.8725 46.8175C24.9263 46.8345 25.0103 46.843 25.1245 46.843C25.1379 46.843 25.1446 46.8532 25.1446 46.8736C25.1446 46.8939 25.1379 46.9041 25.1245 46.9041C25.017 46.9041 24.9313 46.9024 24.8675 46.899L24.4997 46.8939L24.1419 46.899C24.0781 46.9024 23.9891 46.9041 23.8749 46.9041C23.8681 46.9041 23.8648 46.8939 23.8648 46.8736C23.8648 46.8532 23.8681 46.843 23.8749 46.843C23.9891 46.843 24.0714 46.8345 24.1218 46.8175C24.1755 46.8005 24.2125 46.7682 24.2326 46.7206C24.2528 46.6696 24.2628 46.5931 24.2628 46.4912V44.1306C24.2628 44.0286 24.2528 43.9539 24.2326 43.9063C24.2158 43.8587 24.1805 43.8264 24.1268 43.8094C24.0731 43.789 23.9908 43.7788 23.8799 43.7788C23.8732 43.7788 23.8698 43.7686 23.8698 43.7482C23.8698 43.7278 23.8732 43.7176 23.8799 43.7176L24.147 43.7227C24.2948 43.7295 24.4123 43.7329 24.4997 43.7329C24.6004 43.7329 24.7247 43.7295 24.8725 43.7227L25.1245 43.7176C25.1346 43.7176 25.1396 43.7278 25.1396 43.7482C25.1396 43.7686 25.1346 43.7788 25.1245 43.7788C25.0136 43.7788 24.9313 43.789 24.8776 43.8094C24.8272 43.8298 24.7919 43.8655 24.7718 43.9165C24.755 43.9641 24.7466 44.0388 24.7466 44.1408V45.2166L25.7342 44.2071C25.8383 44.1017 25.8904 44.0133 25.8904 43.942C25.8904 43.891 25.8635 43.8519 25.8098 43.8247C25.7594 43.7941 25.6838 43.7788 25.583 43.7788C25.5763 43.7788 25.5729 43.7686 25.5729 43.7482C25.5729 43.7278 25.5763 43.7176 25.583 43.7176L25.8098 43.7227C25.9576 43.7295 26.0919 43.7329 26.2129 43.7329C26.3439 43.7329 26.4766 43.7295 26.6109 43.7227L26.8276 43.7176C26.8377 43.7176 26.8427 43.7278 26.8427 43.7482C26.8427 43.7686 26.8377 43.7788 26.8276 43.7788C26.6798 43.7788 26.5169 43.8196 26.3388 43.9012C26.1642 43.9828 26.0046 44.0949 25.8601 44.2377L25.2152 44.8903L25.9559 45.8845C26.1843 46.2006 26.3556 46.4249 26.4698 46.5574C26.5874 46.6866 26.6798 46.7665 26.747 46.7971C26.8142 46.8277 26.9049 46.843 27.0191 46.843Z" fill="url(#paint7_linear)"/>
<path d="M29.4695 46.1088C29.4695 46.102 29.4762 46.0986 29.4897 46.0986C29.4998 46.0986 29.5082 46.102 29.5149 46.1088C29.525 46.1122 29.53 46.1156 29.53 46.119C29.4964 46.3773 29.4796 46.6135 29.4796 46.8277C29.4796 46.8549 29.4746 46.8752 29.4645 46.8888C29.4544 46.899 29.4343 46.9041 29.404 46.9041H27.2172C27.2071 46.9041 27.2021 46.8939 27.2021 46.8736C27.2021 46.8532 27.2071 46.843 27.2172 46.843C27.3314 46.843 27.4137 46.8345 27.4641 46.8175C27.5178 46.8005 27.5531 46.7682 27.5699 46.7206C27.5901 46.6696 27.6001 46.5931 27.6001 46.4912V44.1306C27.6001 44.0286 27.5901 43.9539 27.5699 43.9063C27.5531 43.8587 27.5178 43.8264 27.4641 43.8094C27.4103 43.789 27.328 43.7788 27.2172 43.7788C27.2071 43.7788 27.2021 43.7686 27.2021 43.7482C27.2021 43.7278 27.2071 43.7176 27.2172 43.7176H29.3133C29.3469 43.7176 29.3637 43.7329 29.3637 43.7635L29.3738 44.4263C29.3738 44.4331 29.3637 44.4382 29.3436 44.4416C29.3268 44.445 29.3167 44.4416 29.3133 44.4314C29.2327 44.0439 28.9992 43.8502 28.6129 43.8502H28.4114C28.2905 43.8502 28.2048 43.8723 28.1544 43.9165C28.104 43.9607 28.0788 44.0354 28.0788 44.1408V45.1809H28.5625C28.9321 45.1809 29.1168 45.0551 29.1168 44.8036C29.1168 44.7934 29.1252 44.7883 29.142 44.7883C29.1622 44.7883 29.1722 44.7934 29.1722 44.8036L29.1672 45.2472L29.1722 45.4868C29.179 45.5956 29.1823 45.6839 29.1823 45.7519C29.1823 45.7587 29.1722 45.7621 29.1521 45.7621C29.1319 45.7621 29.1219 45.7587 29.1219 45.7519C29.1219 45.4596 28.9337 45.3134 28.5575 45.3134H28.0788V46.4708C28.0788 46.5829 28.099 46.6611 28.1393 46.7053C28.183 46.7495 28.2585 46.7716 28.366 46.7716H28.6129C29.0631 46.7716 29.3486 46.5507 29.4695 46.1088Z" fill="url(#paint8_linear)"/>
<path d="M32.6383 44.3396C32.6383 44.1629 32.598 44.0252 32.5174 43.9267C32.4401 43.8281 32.3276 43.7788 32.1798 43.7788C32.173 43.7788 32.1697 43.7686 32.1697 43.7482C32.1697 43.7278 32.173 43.7176 32.1798 43.7176L32.4115 43.7227C32.5392 43.7295 32.64 43.7329 32.7139 43.7329C32.7743 43.7329 32.865 43.7295 32.986 43.7227L33.2077 43.7176C33.2144 43.7176 33.2178 43.7278 33.2178 43.7482C33.2178 43.7686 33.2144 43.7788 33.2077 43.7788C33.0767 43.7788 32.9742 43.8281 32.9003 43.9267C32.8298 44.0252 32.7945 44.1629 32.7945 44.3396V45.7672C32.7945 46.0119 32.7424 46.2261 32.6383 46.4096C32.5375 46.5897 32.3931 46.7291 32.205 46.8277C32.0202 46.9262 31.8052 46.9755 31.56 46.9755C31.3148 46.9755 31.0964 46.9279 30.9049 46.8328C30.7135 46.7342 30.564 46.5948 30.4565 46.4147C30.3524 46.2312 30.3003 46.017 30.3003 45.7723V44.1306C30.3003 44.0286 30.2902 43.9539 30.2701 43.9063C30.2499 43.8587 30.213 43.8264 30.1592 43.8094C30.1088 43.789 30.0282 43.7788 29.9174 43.7788C29.9073 43.7788 29.9022 43.7686 29.9022 43.7482C29.9022 43.7278 29.9073 43.7176 29.9174 43.7176L30.1794 43.7227C30.3272 43.7295 30.4464 43.7329 30.5371 43.7329C30.6379 43.7329 30.7622 43.7295 30.91 43.7227L31.1619 43.7176C31.172 43.7176 31.177 43.7278 31.177 43.7482C31.177 43.7686 31.172 43.7788 31.1619 43.7788C31.0511 43.7788 30.9688 43.789 30.915 43.8094C30.8646 43.8298 30.8294 43.8655 30.8092 43.9165C30.7891 43.9641 30.779 44.0388 30.779 44.1408V45.5938C30.779 45.9983 30.8613 46.3008 31.0259 46.5014C31.1938 46.6985 31.4273 46.7971 31.7263 46.7971C32.0118 46.7971 32.2352 46.7087 32.3964 46.532C32.5577 46.3518 32.6383 46.0986 32.6383 45.7723V44.3396Z" fill="url(#paint9_linear)"/>
<path d="M34.3423 46.4708C34.3423 46.5795 34.354 46.6594 34.3775 46.7104C34.4044 46.758 34.4531 46.792 34.5237 46.8124C34.5976 46.8328 34.7118 46.843 34.8663 46.843C34.8764 46.843 34.8814 46.8532 34.8814 46.8736C34.8814 46.8939 34.8764 46.9041 34.8663 46.9041C34.7286 46.9041 34.6211 46.9024 34.5438 46.899L34.1054 46.8939L33.7427 46.899C33.6788 46.9024 33.5915 46.9041 33.4806 46.9041C33.4706 46.9041 33.4655 46.8939 33.4655 46.8736C33.4655 46.8532 33.4706 46.843 33.4806 46.843C33.5948 46.843 33.6772 46.8345 33.7275 46.8175C33.7779 46.8005 33.8115 46.7682 33.8283 46.7206C33.8485 46.673 33.8585 46.5965 33.8585 46.4912V44.1306C33.8585 44.0286 33.8485 43.9539 33.8283 43.9063C33.8115 43.8587 33.7762 43.8264 33.7225 43.8094C33.6721 43.789 33.5915 43.7788 33.4806 43.7788C33.4706 43.7788 33.4655 43.7686 33.4655 43.7482C33.4655 43.7278 33.4706 43.7176 33.4806 43.7176L33.7427 43.7227C33.8905 43.7295 34.0097 43.7329 34.1004 43.7329C34.1777 43.7329 34.2717 43.7278 34.3826 43.7176C34.4229 43.7142 34.4766 43.7108 34.5438 43.7074C34.6144 43.704 34.6967 43.7023 34.7907 43.7023C35.1233 43.7023 35.3853 43.7737 35.5768 43.9165C35.7716 44.0592 35.869 44.2785 35.869 44.5742C35.869 44.7883 35.8136 44.9701 35.7027 45.1197C35.5952 45.2692 35.4558 45.3814 35.2845 45.4562C35.1166 45.531 34.9436 45.5684 34.7655 45.5684C34.6715 45.5684 34.5925 45.5599 34.5287 45.5429C34.5186 45.5429 34.5136 45.5344 34.5136 45.5174C34.5136 45.5072 34.5153 45.497 34.5186 45.4868C34.5253 45.4766 34.5321 45.4732 34.5388 45.4766C34.5925 45.4902 34.6513 45.497 34.7151 45.497C34.8898 45.497 35.0376 45.4239 35.1586 45.2777C35.2795 45.1316 35.34 44.9226 35.34 44.6506C35.34 44.3821 35.2778 44.1748 35.1535 44.0286C35.0292 43.8791 34.8579 43.8043 34.6396 43.8043C34.5589 43.8043 34.4968 43.8128 34.4531 43.8298C34.4128 43.8468 34.3843 43.8791 34.3675 43.9267C34.3507 43.9709 34.3423 44.0422 34.3423 44.1408V46.4708Z" fill="url(#paint10_linear)"/>
<path d="M19.5855 51.8776C19.6023 51.8776 19.6107 51.8878 19.6107 51.9082C19.6107 51.9286 19.6023 51.9388 19.5855 51.9388C19.5216 51.9388 19.4192 51.9354 19.2781 51.9286C19.137 51.9218 19.0346 51.9184 18.9707 51.9184C18.8868 51.9184 18.7877 51.9218 18.6735 51.9286C18.5592 51.9354 18.4702 51.9388 18.4064 51.9388C18.393 51.9388 18.3862 51.9286 18.3862 51.9082C18.3862 51.8878 18.393 51.8776 18.4064 51.8776C18.5038 51.8776 18.5744 51.8674 18.618 51.847C18.6651 51.8233 18.6886 51.7859 18.6886 51.7349C18.6886 51.6839 18.66 51.5972 18.6029 51.4749L18.0587 50.3583H17.1467L16.7587 51.2403C16.715 51.3423 16.6932 51.4341 16.6932 51.5157C16.6932 51.6346 16.7352 51.7247 16.8192 51.7859C16.9032 51.847 17.0207 51.8776 17.1719 51.8776C17.1887 51.8776 17.1971 51.8878 17.1971 51.9082C17.1971 51.9286 17.1887 51.9388 17.1719 51.9388C17.1114 51.9388 17.0241 51.9354 16.9099 51.9286C16.7822 51.9218 16.6714 51.9184 16.5773 51.9184C16.4866 51.9184 16.3808 51.9218 16.2599 51.9286C16.1524 51.9354 16.0634 51.9388 15.9928 51.9388C15.976 51.9388 15.9676 51.9286 15.9676 51.9082C15.9676 51.8878 15.976 51.8776 15.9928 51.8776C16.0869 51.8776 16.1658 51.8589 16.2296 51.8216C16.2935 51.7842 16.3556 51.7179 16.4161 51.6227C16.4765 51.5242 16.5488 51.3797 16.6327 51.1894L17.7161 48.7217C17.7228 48.7115 17.7379 48.7064 17.7614 48.7064C17.7849 48.7064 17.7984 48.7115 17.8017 48.7217L19.0362 51.2403C19.1538 51.4851 19.2512 51.6533 19.3285 51.7451C19.4091 51.8335 19.4948 51.8776 19.5855 51.8776ZM17.2021 50.2309H17.9983L17.58 49.3743L17.2021 50.2309Z" fill="url(#paint11_linear)"/>
<path d="M23.1073 51.8776C23.1173 51.8776 23.1224 51.8878 23.1224 51.9082C23.1224 51.9286 23.1173 51.9388 23.1073 51.9388H22.296C22.2188 51.9388 22.0743 51.7978 21.8627 51.5157C21.6544 51.2301 21.3991 50.8325 21.0968 50.3226C21.043 50.3328 20.9876 50.3379 20.9305 50.3379C20.8062 50.3379 20.7189 50.3362 20.6685 50.3328V51.5258C20.6685 51.6312 20.6769 51.7077 20.6937 51.7553C20.7138 51.8029 20.7491 51.8352 20.7995 51.8521C20.8533 51.8691 20.9372 51.8776 21.0514 51.8776C21.0582 51.8776 21.0615 51.8878 21.0615 51.9082C21.0615 51.9286 21.0582 51.9388 21.0514 51.9388C20.9406 51.9388 20.8549 51.9371 20.7945 51.9337L20.4216 51.9286L20.0588 51.9337C19.995 51.9371 19.9076 51.9388 19.7968 51.9388C19.7867 51.9388 19.7817 51.9286 19.7817 51.9082C19.7817 51.8878 19.7867 51.8776 19.7968 51.8776C19.911 51.8776 19.9933 51.8691 20.0437 51.8521C20.0974 51.8352 20.1344 51.8029 20.1545 51.7553C20.1747 51.7043 20.1848 51.6278 20.1848 51.5258V49.1653C20.1848 49.0633 20.1747 48.9885 20.1545 48.941C20.1377 48.8934 20.1025 48.8611 20.0487 48.8441C19.995 48.8237 19.9127 48.8135 19.8018 48.8135C19.7951 48.8135 19.7917 48.8033 19.7917 48.7829C19.7917 48.7625 19.7951 48.7523 19.8018 48.7523L20.0638 48.7574C20.2116 48.7642 20.3309 48.7676 20.4216 48.7676C20.5224 48.7676 20.6282 48.7625 20.739 48.7523C20.7794 48.7489 20.8281 48.7455 20.8852 48.7421C20.9423 48.7387 21.0044 48.737 21.0716 48.737C21.3706 48.737 21.6007 48.7931 21.7619 48.9053C21.9232 49.0174 22.0038 49.1755 22.0038 49.3794C22.0038 49.5392 21.9567 49.6904 21.8627 49.8332C21.7686 49.9759 21.646 50.0915 21.4949 50.1799C21.7703 50.6081 22.0004 50.9446 22.1852 51.1894C22.3733 51.4307 22.5396 51.6057 22.684 51.7145C22.8285 51.8233 22.9695 51.8776 23.1073 51.8776ZM20.6685 50.1901C20.7491 50.2037 20.8465 50.2105 20.9607 50.2105C21.1623 50.2105 21.3034 50.1646 21.384 50.0728C21.4646 49.981 21.5049 49.8128 21.5049 49.5681C21.5049 49.2927 21.4596 49.1024 21.3689 48.997C21.2782 48.8883 21.1505 48.8339 20.9859 48.8339C20.865 48.8339 20.781 48.8577 20.734 48.9053C20.6903 48.9529 20.6685 49.0429 20.6685 49.1755V50.1901Z" fill="url(#paint12_linear)"/>
<path d="M23.7139 48.8594C23.509 48.8594 23.3394 48.924 23.205 49.0531C23.074 49.1789 22.9732 49.3709 22.9027 49.6292C22.9027 49.636 22.8926 49.6394 22.8725 49.6394C22.8557 49.6394 22.8473 49.6343 22.8473 49.6241C22.8607 49.4916 22.8758 49.3216 22.8926 49.1143C22.9094 48.9036 22.9178 48.7455 22.9178 48.6401C22.9178 48.6232 22.9262 48.6147 22.943 48.6147C22.9632 48.6147 22.9732 48.6232 22.9732 48.6401C22.9732 48.7149 23.0673 48.7523 23.2554 48.7523C23.5443 48.7625 23.8819 48.7676 24.2682 48.7676C24.4664 48.7676 24.6763 48.7642 24.898 48.7574L25.2407 48.7523C25.3683 48.7523 25.4607 48.7438 25.5178 48.7268C25.5783 48.7098 25.6169 48.6758 25.6337 48.6249C25.6371 48.6113 25.6471 48.6045 25.6639 48.6045C25.6807 48.6045 25.6891 48.6113 25.6891 48.6249C25.6791 48.7302 25.669 48.89 25.6589 49.1041C25.6488 49.3182 25.6438 49.4916 25.6438 49.6241C25.6438 49.6343 25.6337 49.6394 25.6136 49.6394C25.5968 49.6394 25.5867 49.6343 25.5833 49.6241C25.5497 49.3624 25.4708 49.1704 25.3465 49.048C25.2222 48.9223 25.0543 48.8594 24.8426 48.8594C24.7486 48.8594 24.678 48.8679 24.631 48.8849C24.5873 48.9019 24.5571 48.9325 24.5403 48.9766C24.5269 49.0174 24.5201 49.0837 24.5201 49.1755V51.5258C24.5201 51.6312 24.5302 51.7077 24.5504 51.7553C24.5705 51.8029 24.6108 51.8352 24.6713 51.8521C24.7318 51.8691 24.8275 51.8776 24.9585 51.8776C24.9686 51.8776 24.9736 51.8878 24.9736 51.9082C24.9736 51.9286 24.9686 51.9388 24.9585 51.9388C24.8409 51.9388 24.7486 51.9371 24.6814 51.9337L24.2682 51.9286L23.8752 51.9337C23.8046 51.9371 23.7072 51.9388 23.5829 51.9388C23.5762 51.9388 23.5728 51.9286 23.5728 51.9082C23.5728 51.8878 23.5762 51.8776 23.5829 51.8776C23.7139 51.8776 23.8097 51.8691 23.8701 51.8521C23.934 51.8352 23.976 51.8029 23.9961 51.7553C24.0196 51.7043 24.0314 51.6278 24.0314 51.5258V49.1653C24.0314 49.0769 24.023 49.0123 24.0062 48.9715C23.9894 48.9308 23.9592 48.9019 23.9155 48.8849C23.8718 48.8679 23.8046 48.8594 23.7139 48.8594Z" fill="url(#paint13_linear)"/>
<path d="M26.9723 51.5258C26.9723 51.6312 26.9807 51.7077 26.9975 51.7553C27.0142 51.8029 27.0478 51.8352 27.0982 51.8521C27.152 51.8691 27.236 51.8776 27.3502 51.8776C27.3602 51.8776 27.3653 51.8878 27.3653 51.9082C27.3653 51.9286 27.3602 51.9388 27.3502 51.9388C27.2427 51.9388 27.157 51.9371 27.0932 51.9337L26.7203 51.9286L26.3575 51.9337C26.2937 51.9371 26.2064 51.9388 26.0955 51.9388C26.0854 51.9388 26.0804 51.9286 26.0804 51.9082C26.0804 51.8878 26.0854 51.8776 26.0955 51.8776C26.2097 51.8776 26.292 51.8691 26.3424 51.8521C26.3962 51.8352 26.4331 51.8029 26.4533 51.7553C26.4734 51.7043 26.4835 51.6278 26.4835 51.5258V49.1653C26.4835 49.0633 26.4734 48.9885 26.4533 48.941C26.4331 48.8934 26.3962 48.8611 26.3424 48.8441C26.292 48.8237 26.2097 48.8135 26.0955 48.8135C26.0854 48.8135 26.0804 48.8033 26.0804 48.7829C26.0804 48.7625 26.0854 48.7523 26.0955 48.7523L26.3575 48.7574C26.5053 48.7642 26.6263 48.7676 26.7203 48.7676C26.8245 48.7676 26.9504 48.7642 27.0982 48.7574L27.3502 48.7523C27.3602 48.7523 27.3653 48.7625 27.3653 48.7829C27.3653 48.8033 27.3602 48.8135 27.3502 48.8135C27.2393 48.8135 27.157 48.8237 27.1033 48.8441C27.0529 48.8645 27.0176 48.9002 26.9975 48.9511C26.9807 48.9987 26.9723 49.0735 26.9723 49.1755V51.5258Z" fill="url(#paint14_linear)"/>
<path d="M28.4076 49.2927C28.4076 49.4185 28.4379 49.5307 28.4983 49.6292C28.5622 49.7244 28.6394 49.8077 28.7301 49.8791C28.8242 49.9504 28.9502 50.0354 29.108 50.134C29.2794 50.2427 29.4137 50.3362 29.5111 50.4144C29.6119 50.4926 29.6959 50.5894 29.7631 50.705C29.8336 50.8172 29.8689 50.9497 29.8689 51.1027C29.8689 51.276 29.8235 51.4307 29.7328 51.5666C29.6455 51.7026 29.5195 51.8097 29.3549 51.8878C29.1937 51.9626 29.0089 52 28.8007 52C28.6596 52 28.5135 51.9813 28.3623 51.9439C28.2145 51.9065 28.102 51.8606 28.0247 51.8063C27.9945 51.7859 27.9777 51.7536 27.9743 51.7094L27.9441 50.9344V50.9293C27.9441 50.9157 27.9525 50.9089 27.9693 50.9089C27.9861 50.9055 27.9961 50.9106 27.9995 50.9242C28.1104 51.2063 28.2363 51.4375 28.3774 51.6176C28.5219 51.7978 28.7049 51.8878 28.9266 51.8878C29.0711 51.8878 29.192 51.8487 29.2894 51.7706C29.3868 51.689 29.4356 51.5547 29.4356 51.3678C29.4356 51.2182 29.402 51.0874 29.3348 50.9752C29.271 50.8631 29.1903 50.7696 29.0929 50.6948C28.9989 50.62 28.8695 50.5283 28.7049 50.4195C28.5437 50.3141 28.4177 50.2257 28.327 50.1544C28.2363 50.0796 28.1591 49.9895 28.0952 49.8842C28.0314 49.7754 27.9995 49.6496 27.9995 49.5069C27.9995 49.3301 28.0482 49.1806 28.1456 49.0582C28.243 48.9359 28.369 48.8458 28.5235 48.788C28.6814 48.7268 28.846 48.6962 29.0173 48.6962C29.1315 48.6962 29.2458 48.7081 29.36 48.7319C29.4742 48.7523 29.5699 48.7795 29.6472 48.8135C29.6774 48.8237 29.6976 48.8373 29.7076 48.8543C29.7177 48.8679 29.7228 48.8866 29.7228 48.9104L29.7379 49.6037C29.7379 49.6139 29.7278 49.6224 29.7076 49.6292C29.6909 49.6326 29.6808 49.6275 29.6774 49.6139C29.6102 49.4066 29.5195 49.2197 29.4053 49.0531C29.2945 48.8832 29.1265 48.7982 28.9014 48.7982C28.7503 48.7982 28.6293 48.8424 28.5386 48.9308C28.4513 49.0191 28.4076 49.1398 28.4076 49.2927Z" fill="url(#paint15_linear)"/>
<path d="M31.1983 48.8594C30.9934 48.8594 30.8238 48.924 30.6894 49.0531C30.5584 49.1789 30.4576 49.3709 30.3871 49.6292C30.3871 49.636 30.377 49.6394 30.3568 49.6394C30.34 49.6394 30.3316 49.6343 30.3316 49.6241C30.3451 49.4916 30.3602 49.3216 30.377 49.1143C30.3938 48.9036 30.4022 48.7455 30.4022 48.6401C30.4022 48.6232 30.4106 48.6147 30.4274 48.6147C30.4475 48.6147 30.4576 48.6232 30.4576 48.6401C30.4576 48.7149 30.5517 48.7523 30.7398 48.7523C31.0287 48.7625 31.3663 48.7676 31.7526 48.7676C31.9508 48.7676 32.1607 48.7642 32.3824 48.7574L32.7251 48.7523C32.8527 48.7523 32.9451 48.7438 33.0022 48.7268C33.0627 48.7098 33.1013 48.6758 33.1181 48.6249C33.1214 48.6113 33.1315 48.6045 33.1483 48.6045C33.1651 48.6045 33.1735 48.6113 33.1735 48.6249C33.1634 48.7302 33.1534 48.89 33.1433 49.1041C33.1332 49.3182 33.1282 49.4916 33.1282 49.6241C33.1282 49.6343 33.1181 49.6394 33.0979 49.6394C33.0811 49.6394 33.0711 49.6343 33.0677 49.6241C33.0341 49.3624 32.9552 49.1704 32.8309 49.048C32.7066 48.9223 32.5386 48.8594 32.327 48.8594C32.2329 48.8594 32.1624 48.8679 32.1154 48.8849C32.0717 48.9019 32.0415 48.9325 32.0247 48.9766C32.0112 49.0174 32.0045 49.0837 32.0045 49.1755V51.5258C32.0045 51.6312 32.0146 51.7077 32.0347 51.7553C32.0549 51.8029 32.0952 51.8352 32.1557 51.8521C32.2161 51.8691 32.3119 51.8776 32.4429 51.8776C32.453 51.8776 32.458 51.8878 32.458 51.9082C32.458 51.9286 32.453 51.9388 32.4429 51.9388C32.3253 51.9388 32.2329 51.9371 32.1657 51.9337L31.7526 51.9286L31.3595 51.9337C31.289 51.9371 31.1916 51.9388 31.0673 51.9388C31.0606 51.9388 31.0572 51.9286 31.0572 51.9082C31.0572 51.8878 31.0606 51.8776 31.0673 51.8776C31.1983 51.8776 31.294 51.8691 31.3545 51.8521C31.4183 51.8352 31.4603 51.8029 31.4805 51.7553C31.504 51.7043 31.5157 51.6278 31.5157 51.5258V49.1653C31.5157 49.0769 31.5074 49.0123 31.4906 48.9715C31.4738 48.9308 31.4435 48.9019 31.3999 48.8849C31.3562 48.8679 31.289 48.8594 31.1983 48.8594Z" fill="url(#paint16_linear)"/>
<path d="M34.1845 49.2927C34.1845 49.4185 34.2148 49.5307 34.2752 49.6292C34.3391 49.7244 34.4163 49.8077 34.507 49.8791C34.6011 49.9504 34.727 50.0354 34.8849 50.134C35.0562 50.2427 35.1906 50.3362 35.288 50.4144C35.3888 50.4926 35.4728 50.5894 35.54 50.705C35.6105 50.8172 35.6458 50.9497 35.6458 51.1027C35.6458 51.276 35.6004 51.4307 35.5097 51.5666C35.4224 51.7026 35.2964 51.8097 35.1318 51.8878C34.9706 51.9626 34.7858 52 34.5776 52C34.4365 52 34.2903 51.9813 34.1392 51.9439C33.9914 51.9065 33.8788 51.8606 33.8016 51.8063C33.7714 51.7859 33.7546 51.7536 33.7512 51.7094L33.721 50.9344V50.9293C33.721 50.9157 33.7294 50.9089 33.7462 50.9089C33.763 50.9055 33.773 50.9106 33.7764 50.9242C33.8872 51.2063 34.0132 51.4375 34.1543 51.6176C34.2987 51.7978 34.4818 51.8878 34.7035 51.8878C34.848 51.8878 34.9689 51.8487 35.0663 51.7706C35.1637 51.689 35.2124 51.5547 35.2124 51.3678C35.2124 51.2182 35.1789 51.0874 35.1117 50.9752C35.0478 50.8631 34.9672 50.7696 34.8698 50.6948C34.7758 50.62 34.6464 50.5283 34.4818 50.4195C34.3206 50.3141 34.1946 50.2257 34.1039 50.1544C34.0132 50.0796 33.936 49.9895 33.8721 49.8842C33.8083 49.7754 33.7764 49.6496 33.7764 49.5069C33.7764 49.3301 33.8251 49.1806 33.9225 49.0582C34.0199 48.9359 34.1459 48.8458 34.3004 48.788C34.4583 48.7268 34.6229 48.6962 34.7942 48.6962C34.9084 48.6962 35.0227 48.7081 35.1369 48.7319C35.2511 48.7523 35.3468 48.7795 35.4241 48.8135C35.4543 48.8237 35.4745 48.8373 35.4845 48.8543C35.4946 48.8679 35.4997 48.8866 35.4997 48.9104L35.5148 49.6037C35.5148 49.6139 35.5047 49.6224 35.4845 49.6292C35.4677 49.6326 35.4577 49.6275 35.4543 49.6139C35.3871 49.4066 35.2964 49.2197 35.1822 49.0531C35.0714 48.8832 34.9034 48.7982 34.6783 48.7982C34.5272 48.7982 34.4062 48.8424 34.3155 48.9308C34.2282 49.0191 34.1845 49.1398 34.1845 49.2927Z" fill="url(#paint17_linear)"/>
<path d="M21.588 11.1261C21.3319 11.1261 21.1198 11.2068 20.9519 11.3682C20.7881 11.5254 20.6622 11.7655 20.574 12.0884C20.574 12.0969 20.5614 12.1011 20.5362 12.1011C20.5152 12.1011 20.5047 12.0948 20.5047 12.082C20.5215 11.9163 20.5404 11.7039 20.5614 11.4447C20.5824 11.1813 20.5929 10.9837 20.5929 10.852C20.5929 10.8308 20.6034 10.8202 20.6244 10.8202C20.6496 10.8202 20.6621 10.8308 20.6621 10.852C20.6621 10.9455 20.7797 10.9922 21.0149 10.9922C21.376 11.005 21.798 11.0113 22.2809 11.0113C22.5286 11.0113 22.791 11.0071 23.0682 10.9986L23.4965 10.9922C23.656 10.9922 23.7715 10.9816 23.8429 10.9604C23.9185 10.9391 23.9668 10.8966 23.9878 10.8329C23.9919 10.8159 24.0045 10.8074 24.0255 10.8074C24.0465 10.8074 24.057 10.8159 24.057 10.8329C24.0444 10.9646 24.0318 11.1643 24.0192 11.432C24.0066 11.6996 24.0003 11.9163 24.0003 12.082C24.0003 12.0948 23.9878 12.1011 23.9626 12.1011C23.9416 12.1011 23.929 12.0948 23.9248 12.082C23.8828 11.7549 23.7841 11.5148 23.6287 11.3619C23.4734 11.2047 23.2634 11.1261 22.9989 11.1261C22.8813 11.1261 22.7931 11.1367 22.7344 11.1579C22.6798 11.1792 22.642 11.2174 22.621 11.2726C22.6042 11.3236 22.5958 11.4065 22.5958 11.5212V14.4591C22.5958 14.5908 22.6084 14.6864 22.6336 14.7459C22.6588 14.8054 22.7092 14.8458 22.7847 14.867C22.8603 14.8883 22.98 14.8989 23.1438 14.8989C23.1564 14.8989 23.1626 14.9116 23.1626 14.9371C23.1626 14.9626 23.1564 14.9754 23.1438 14.9754C22.9968 14.9754 22.8813 14.9732 22.7973 14.969L22.2809 14.9626L21.7896 14.969C21.7014 14.9732 21.5796 14.9754 21.4243 14.9754C21.4159 14.9754 21.4117 14.9626 21.4117 14.9371C21.4117 14.9116 21.4159 14.8989 21.4243 14.8989C21.588 14.8989 21.7077 14.8883 21.7833 14.867C21.8631 14.8458 21.9155 14.8054 21.9407 14.7459C21.9701 14.6822 21.9848 14.5866 21.9848 14.4591V11.5084C21.9848 11.398 21.9743 11.3172 21.9533 11.2663C21.9323 11.2153 21.8946 11.1792 21.84 11.1579C21.7854 11.1367 21.7014 11.1261 21.588 11.1261Z" fill="url(#paint18_linear)"/>
<path d="M26.9986 15.0518C26.6081 15.0518 26.2596 14.9605 25.953 14.7778C25.6507 14.5908 25.4156 14.3402 25.2476 14.0258C25.0838 13.7071 25.002 13.3609 25.002 12.987C25.002 12.5494 25.1111 12.1755 25.3295 11.8653C25.5478 11.5509 25.8271 11.3151 26.1672 11.1579C26.5115 11.0007 26.8621 10.9221 27.219 10.9221C27.6179 10.9221 27.9685 11.0177 28.2709 11.2089C28.5732 11.3958 28.8041 11.6444 28.9637 11.9545C29.1275 12.2647 29.2093 12.594 29.2093 12.9424C29.2093 13.329 29.1086 13.6838 28.907 14.0067C28.7055 14.3296 28.4346 14.5845 28.0945 14.7714C27.7586 14.9584 27.3933 15.0518 26.9986 15.0518ZM27.2127 14.8989C27.4647 14.8989 27.6893 14.8309 27.8867 14.6949C28.0882 14.5547 28.2457 14.3508 28.359 14.0831C28.4766 13.8155 28.5354 13.4968 28.5354 13.1272C28.5354 12.7363 28.4703 12.3858 28.3401 12.0756C28.2142 11.7655 28.0315 11.5233 27.7922 11.3491C27.557 11.1749 27.2799 11.0878 26.9608 11.0878C26.5535 11.0878 26.2365 11.2365 26.0097 11.5339C25.7872 11.8271 25.6759 12.235 25.6759 12.7575C25.6759 13.1612 25.741 13.5266 25.8711 13.8537C26.0055 14.1809 26.1882 14.4379 26.4191 14.6248C26.6543 14.8075 26.9188 14.8989 27.2127 14.8989Z" fill="url(#paint19_linear)"/>
<path d="M31.3296 14.4336C31.3296 14.5696 31.3443 14.6695 31.3737 14.7332C31.4072 14.7927 31.4681 14.8351 31.5563 14.8606C31.6487 14.8861 31.7915 14.8989 31.9846 14.8989C31.9972 14.8989 32.0035 14.9116 32.0035 14.9371C32.0035 14.9626 31.9972 14.9754 31.9846 14.9754C31.8125 14.9754 31.6781 14.9732 31.5815 14.969L31.0335 14.9626L30.58 14.969C30.5003 14.9732 30.3911 14.9754 30.2525 14.9754C30.2399 14.9754 30.2336 14.9626 30.2336 14.9371C30.2336 14.9116 30.2399 14.8989 30.2525 14.8989C30.3953 14.8989 30.4982 14.8883 30.5612 14.867C30.6241 14.8458 30.6661 14.8054 30.6871 14.7459C30.7123 14.6864 30.7249 14.5908 30.7249 14.4591V11.5084C30.7249 11.381 30.7123 11.2875 30.6871 11.228C30.6661 11.1685 30.622 11.1282 30.5549 11.1069C30.4919 11.0814 30.3911 11.0687 30.2525 11.0687C30.2399 11.0687 30.2336 11.056 30.2336 11.0305C30.2336 11.005 30.2399 10.9922 30.2525 10.9922L30.58 10.9986C30.7648 11.0071 30.9139 11.0113 31.0272 11.0113C31.1238 11.0113 31.2414 11.005 31.38 10.9922C31.4303 10.988 31.4975 10.9837 31.5815 10.9795C31.6697 10.9752 31.7726 10.9731 31.8901 10.9731C32.3058 10.9731 32.6334 11.0623 32.8727 11.2408C33.1162 11.4192 33.238 11.6933 33.238 12.0629C33.238 12.3306 33.1687 12.5579 33.0302 12.7448C32.8958 12.9317 32.7215 13.0719 32.5074 13.1654C32.2974 13.2589 32.0812 13.3056 31.8586 13.3056C31.7411 13.3056 31.6424 13.295 31.5626 13.2738C31.55 13.2738 31.5437 13.2631 31.5437 13.2419C31.5437 13.2291 31.5458 13.2164 31.55 13.2037C31.5584 13.1909 31.5668 13.1867 31.5752 13.1909C31.6424 13.2079 31.7159 13.2164 31.7957 13.2164C32.014 13.2164 32.1988 13.1251 32.3499 12.9424C32.5011 12.7597 32.5767 12.4984 32.5767 12.1585C32.5767 11.8228 32.499 11.5637 32.3436 11.381C32.1883 11.194 31.9741 11.1006 31.7012 11.1006C31.6004 11.1006 31.5227 11.1112 31.4681 11.1324C31.4177 11.1537 31.3821 11.194 31.3611 11.2535C31.3401 11.3087 31.3296 11.398 31.3296 11.5212V14.4336Z" fill="url(#paint20_linear)"/>
<path d="M6.95511 11.3878C7.03989 11.4645 7.10754 11.5132 7.15806 11.534C7.20858 11.5548 7.25902 11.5507 7.30937 11.5215C7.36217 11.4896 7.43015 11.4266 7.51329 11.3325C7.52063 11.3242 7.5325 11.3275 7.54891 11.3424C7.56532 11.3572 7.56986 11.3688 7.56252 11.3771C7.48427 11.4656 7.42054 11.535 7.37135 11.5851L7.0958 11.8885L6.83579 12.1911C6.79206 12.2462 6.72985 12.3194 6.64915 12.4107C6.64181 12.419 6.62994 12.4157 6.61353 12.4009C6.59712 12.386 6.59258 12.3745 6.59992 12.3662C6.68306 12.2721 6.73614 12.1981 6.75915 12.1442C6.7846 12.0875 6.78552 12.0336 6.7619 11.9824C6.73555 11.9286 6.68134 11.8647 6.5993 11.7904L4.69984 10.072C4.61779 9.99773 4.55028 9.9516 4.49732 9.93356C4.44435 9.91552 4.39147 9.92246 4.33867 9.95436C4.28558 9.98103 4.21746 10.0414 4.13431 10.1355C4.12698 10.1438 4.1151 10.1405 4.09869 10.1257C4.08228 10.1108 4.07775 10.0993 4.08508 10.091L4.27993 9.87881C4.393 9.762 4.48377 9.66485 4.55225 9.58736C4.62805 9.50157 4.71702 9.39532 4.81915 9.26861L4.99846 9.05734C5.0058 9.04904 5.01767 9.05232 5.03408 9.06716C5.05049 9.08201 5.05503 9.09358 5.04769 9.10188C4.96699 9.19321 4.91528 9.26843 4.89256 9.32755C4.87229 9.38391 4.87533 9.43895 4.90168 9.49267C4.92775 9.54115 4.9818 9.6025 5.06385 9.67673L6.95511 11.3878Z" fill="url(#paint21_linear)"/>
<path d="M8.64612 5.67222C8.65167 5.66737 8.66164 5.67338 8.67601 5.69026C8.69038 5.70713 8.69478 5.71799 8.68922 5.72284C8.57804 5.81976 8.52661 5.93566 8.53491 6.07053C8.54081 6.20258 8.60723 6.34314 8.73416 6.49219L10.5913 8.67315C10.5985 8.68159 10.5964 8.69327 10.5849 8.7082C10.5734 8.72313 10.5624 8.73021 10.5521 8.72943L6.63898 8.13503L8.10102 9.85196C8.22794 10.001 8.35412 10.0895 8.47954 10.1173C8.60496 10.1452 8.72326 10.1107 8.83444 10.0137C8.84 10.0089 8.84997 10.0149 8.86433 10.0318C8.8787 10.0486 8.88311 10.0595 8.87755 10.0644C8.8025 10.1298 8.74433 10.178 8.70302 10.2092L8.47846 10.3976L8.23607 10.6162C8.194 10.6578 8.13127 10.715 8.04788 10.7877C8.03955 10.7949 8.02819 10.7901 8.01382 10.7733C7.99945 10.7564 7.99644 10.7443 8.00478 10.737C8.12429 10.6328 8.18249 10.5135 8.17936 10.379C8.17901 10.2421 8.11537 10.0992 7.98845 9.9501L6.41505 8.1024C6.26539 8.08588 6.14422 8.08861 6.05155 8.11059C5.96167 8.13015 5.88337 8.16901 5.81667 8.22717C5.81111 8.23201 5.80114 8.226 5.78677 8.20913C5.7724 8.19225 5.768 8.18139 5.77356 8.17655L5.94392 8.03538C5.98244 8.00669 6.03506 7.96326 6.10177 7.90511L6.365 7.66827C6.39596 7.63638 6.43507 7.59984 6.48232 7.55864C6.50455 7.53926 6.52602 7.53034 6.54672 7.5319C6.56741 7.53345 6.60325 7.54142 6.65422 7.55578C6.75655 7.57927 6.82961 7.59398 6.8734 7.5999L9.89324 8.08368L8.62159 6.59033C8.49466 6.44127 8.36849 6.35282 8.24307 6.32496C8.11525 6.29429 7.99714 6.3262 7.88874 6.42071C7.88318 6.42555 7.87322 6.41954 7.85885 6.40266C7.84448 6.38579 7.84008 6.37493 7.84563 6.37008L8.02016 6.22528C8.11389 6.15336 8.18995 6.09196 8.24831 6.04108C8.3039 5.99261 8.37655 5.92437 8.46626 5.83636L8.64612 5.67222Z" fill="url(#paint22_linear)"/>
<path d="M12.7058 7.18959C12.6083 7.24889 12.4923 7.31298 12.3577 7.38187C12.3087 7.40738 12.247 7.44055 12.1728 7.48137C12.0986 7.52218 12.0159 7.57033 11.9247 7.6258L11.5927 7.8343C11.5349 7.87383 11.4525 7.92611 11.3456 7.99115C11.3393 7.99498 11.3305 7.98735 11.3191 7.96826C11.3078 7.94917 11.3053 7.93771 11.3116 7.93389C11.4185 7.86885 11.4908 7.81403 11.5285 7.76942C11.5693 7.72291 11.586 7.67164 11.5784 7.61563C11.5689 7.55643 11.5358 7.47911 11.479 7.38366L10.166 5.17415C10.1093 5.07871 10.0583 5.01446 10.013 4.9814C9.97077 4.94642 9.9198 4.93628 9.86004 4.95098C9.79839 4.9625 9.71568 4.99982 9.61192 5.06295C9.60563 5.06678 9.59682 5.05914 9.58547 5.04006C9.57413 5.02097 9.5716 5.00951 9.57789 5.00568L9.83069 4.85838C9.97282 4.78057 10.0848 4.7168 10.1665 4.66706C10.2923 4.59055 10.4168 4.5083 10.54 4.42032C10.6935 4.31832 10.7969 4.25105 10.8504 4.21853C11.1711 4.02341 11.4934 3.91392 11.8174 3.89005C12.1415 3.86619 12.4363 3.92289 12.7019 4.06015C12.9707 4.1955 13.1864 4.39998 13.349 4.67358C13.5324 4.98218 13.6243 5.29883 13.6246 5.62352C13.623 5.94502 13.5414 6.24369 13.38 6.51951C13.2167 6.79215 12.9919 7.01551 12.7058 7.18959ZM12.6019 7.12284C12.8189 6.99085 12.9795 6.82167 13.0837 6.61529C13.1911 6.40701 13.2315 6.17236 13.2048 5.91136C13.1763 5.64718 13.0769 5.37192 12.9068 5.0856C12.7442 4.81199 12.5521 4.59317 12.3304 4.42912C12.1101 4.25999 11.8803 4.16152 11.6412 4.13374C11.4002 4.10277 11.1712 4.15329 10.9542 4.28528C10.8222 4.36562 10.7247 4.43575 10.6618 4.49565C10.599 4.55556 10.5635 4.6183 10.5554 4.68388C10.5485 4.74437 10.5715 4.81915 10.6245 4.90823L11.9006 7.05571C11.9781 7.18615 12.0669 7.25991 12.167 7.27701C12.2651 7.29092 12.4101 7.23953 12.6019 7.12284Z" fill="url(#paint23_linear)"/>
<path d="M15.752 5.06565C15.7978 5.17101 15.8394 5.24374 15.8769 5.28386C15.9143 5.32397 15.9619 5.34133 16.0197 5.33592C16.0808 5.32902 16.1685 5.30019 16.2827 5.24941C16.2928 5.24494 16.3022 5.25289 16.3111 5.27328C16.3199 5.29368 16.3193 5.30611 16.3092 5.31059C16.2018 5.35838 16.1154 5.39476 16.0501 5.41973L15.675 5.58039L15.3145 5.74676C15.2521 5.77853 15.1655 5.81906 15.0547 5.86834C15.0446 5.87282 15.0351 5.86486 15.0263 5.84447C15.0174 5.82407 15.018 5.81164 15.0281 5.80716C15.1423 5.75639 15.2209 5.7113 15.2639 5.67191C15.3103 5.63103 15.3332 5.58231 15.3327 5.52577C15.3307 5.46583 15.3076 5.38488 15.2633 5.28292L14.2384 2.92254C14.1941 2.82058 14.1515 2.75029 14.1107 2.71167C14.0699 2.67305 14.0189 2.65719 13.9578 2.66409C13.8986 2.66609 13.8119 2.69248 13.6977 2.74325C13.6876 2.74773 13.6781 2.73978 13.6693 2.71939C13.6604 2.69899 13.661 2.68656 13.6711 2.68208L13.9353 2.5707C14.086 2.51179 14.2084 2.46143 14.3025 2.41962C14.4066 2.37333 14.5311 2.31393 14.6759 2.24143L14.9257 2.12433C14.9357 2.11985 14.9452 2.12781 14.9541 2.1482C14.9629 2.16859 14.9623 2.18103 14.9522 2.18551C14.8414 2.23479 14.7635 2.28157 14.7186 2.32586C14.6771 2.36865 14.6573 2.42001 14.6593 2.47995C14.6632 2.535 14.6872 2.6135 14.7315 2.71546L15.752 5.06565Z" fill="url(#paint24_linear)"/>
<path d="M20.5446 3.85375C20.5622 3.84851 20.5741 3.85656 20.5803 3.87793C20.5865 3.89929 20.5809 3.9126 20.5633 3.91785C20.4964 3.93779 20.388 3.96623 20.2381 4.00319C20.0883 4.04014 19.9799 4.06859 19.913 4.08853C19.825 4.11477 19.7223 4.14929 19.6047 4.19209C19.4871 4.23489 19.3949 4.26626 19.328 4.2862C19.3139 4.2904 19.3038 4.28182 19.2976 4.26045C19.2913 4.23908 19.2953 4.2263 19.3093 4.22211C19.4114 4.19167 19.4822 4.15895 19.5217 4.12394C19.5637 4.08433 19.577 4.03781 19.5614 3.9844C19.5458 3.93098 19.4895 3.8491 19.3923 3.73875L18.4815 2.73903L17.526 3.02395L17.3887 4.0692C17.3741 4.18967 17.3792 4.29263 17.4041 4.37809C17.4404 4.50272 17.5119 4.58396 17.6185 4.62182C17.7252 4.65968 17.8577 4.655 18.016 4.60777C18.0336 4.60253 18.0455 4.61059 18.0518 4.63195C18.058 4.65332 18.0523 4.66662 18.0347 4.67187C17.9714 4.69076 17.8788 4.71448 17.7571 4.74304C17.6213 4.7758 17.5041 4.80687 17.4056 4.83626C17.3106 4.86459 17.2008 4.90121 17.0761 4.94611C16.9656 4.98681 16.8734 5.01818 16.7995 5.04022C16.7819 5.04547 16.77 5.03741 16.7637 5.01605C16.7575 4.99468 16.7632 4.98138 16.7808 4.97613C16.8793 4.94674 16.9563 4.9025 17.0118 4.84339C17.0672 4.78428 17.1121 4.69543 17.1464 4.57684C17.1797 4.45468 17.2113 4.28078 17.2412 4.05514L17.6231 1.13153C17.6271 1.11875 17.6413 1.10868 17.666 1.10134C17.6906 1.09399 17.7062 1.09513 17.7129 1.10477L19.7747 3.35768C19.9726 3.57733 20.126 3.72316 20.2349 3.79516C20.3463 3.86256 20.4496 3.88209 20.5446 3.85375ZM17.5452 2.8731L18.3793 2.62439L17.6797 1.85771L17.5452 2.8731Z" fill="url(#paint25_linear)"/>
<path d="M20.6639 0.418619C20.7831 0.396953 20.8854 0.427381 20.9709 0.509903C21.0557 0.588772 21.1134 0.714069 21.1439 0.885795C21.1724 1.04656 21.1626 1.2011 21.1144 1.34942C21.0698 1.49708 20.9909 1.65098 20.8777 1.81112C20.8747 1.81543 20.8696 1.81824 20.8624 1.81956C20.8516 1.82153 20.8416 1.81769 20.8324 1.80804C20.8232 1.79839 20.8216 1.78926 20.8275 1.78064C20.972 1.56578 21.0222 1.33412 20.9781 1.08567C20.9599 0.983363 20.9286 0.911744 20.884 0.870811C20.8613 0.931526 20.8029 0.970419 20.709 0.98749C20.6296 1.00193 20.5622 0.989675 20.5068 0.950712C20.4508 0.908095 20.4153 0.844768 20.4004 0.760732C20.3842 0.669389 20.3989 0.595044 20.4446 0.537697C20.4933 0.476039 20.5664 0.436347 20.6639 0.418619Z" fill="url(#paint26_linear)"/>
<path d="M22.7322 0.717058C22.7444 0.853854 22.7882 0.97285 22.8636 1.07405C22.9423 1.17121 23.0344 1.2541 23.14 1.32271C23.2493 1.39098 23.3946 1.47087 23.5759 1.56237C23.7728 1.66362 23.9281 1.75191 24.0416 1.82724C24.1588 1.90224 24.2596 1.99925 24.3439 2.11826C24.4316 2.23324 24.4828 2.37392 24.4977 2.54029C24.5146 2.72885 24.4803 2.90159 24.3948 3.0585C24.3131 3.21509 24.1865 3.34409 24.015 3.44552C23.8469 3.54291 23.6496 3.60197 23.423 3.62271C23.2696 3.63676 23.1088 3.63098 22.9407 3.60536C22.7763 3.57941 22.6495 3.5407 22.5601 3.48924C22.5253 3.47007 22.5039 3.43662 22.4959 3.38889L22.3876 2.54895L22.3871 2.5434C22.3858 2.52861 22.3943 2.52038 22.4126 2.51871C22.4305 2.51334 22.442 2.51788 22.4469 2.53234C22.595 2.82816 22.7545 3.06703 22.9254 3.24893C23.1001 3.4305 23.308 3.51024 23.5491 3.48816C23.7063 3.47378 23.834 3.41922 23.9324 3.32449C24.0304 3.22605 24.0703 3.07517 24.0521 2.87182C24.0376 2.70915 23.9883 2.57015 23.9043 2.45483C23.824 2.33918 23.7272 2.24554 23.614 2.1739C23.5044 2.10193 23.3548 2.01498 23.1652 1.91307C22.9795 1.81451 22.8339 1.73093 22.7283 1.66232C22.6224 1.59001 22.5296 1.49973 22.4499 1.39147C22.3699 1.27952 22.323 1.1459 22.3091 0.990621C22.2919 0.798368 22.3303 0.630843 22.4244 0.488045C22.5185 0.345247 22.6467 0.234729 22.8092 0.15649C22.975 0.07422 23.151 0.0245554 23.3374 0.00749636C23.4616 -0.00387634 23.587 -0.00230893 23.7136 0.0121986C23.8398 0.0230088 23.9466 0.043053 24.0339 0.0723313C24.0678 0.0804125 24.091 0.0931942 24.1036 0.110676C24.1159 0.124462 24.1232 0.144294 24.1255 0.170174L24.2094 0.92289C24.2104 0.933982 24.2003 0.944228 24.179 0.95363C24.1611 0.958999 24.1496 0.954457 24.1446 0.940003C24.0514 0.721166 23.9346 0.526853 23.7941 0.357065C23.657 0.183245 23.4661 0.10754 23.2212 0.129951C23.0568 0.145003 22.9296 0.205108 22.8395 0.310266C22.7531 0.415089 22.7173 0.550686 22.7322 0.717058Z" fill="url(#paint27_linear)"/>
<path d="M28.0998 3.10275C28.0905 3.21744 28.0928 3.30144 28.1069 3.35476C28.121 3.40809 28.1547 3.44628 28.208 3.46936C28.265 3.49274 28.3557 3.50961 28.48 3.51998C28.4909 3.5209 28.4955 3.53246 28.4937 3.55465C28.4919 3.57685 28.4855 3.58749 28.4746 3.58658C28.3575 3.57682 28.2645 3.56719 28.1953 3.55769L27.7899 3.51828L27.3945 3.49089C27.3248 3.48879 27.2295 3.48271 27.1089 3.47264C27.0979 3.47173 27.0933 3.46017 27.0951 3.43797C27.0969 3.41577 27.1033 3.40513 27.1143 3.40605C27.2386 3.41642 27.3289 3.41464 27.3853 3.40072C27.4453 3.3871 27.4884 3.35531 27.5146 3.30535C27.541 3.25168 27.5588 3.16935 27.5678 3.05836L27.7772 0.488914C27.7862 0.377923 27.7819 0.295614 27.7642 0.241988C27.7465 0.188361 27.7091 0.149859 27.6521 0.126479C27.5991 0.0997055 27.5104 0.0811327 27.3861 0.0707611C27.3751 0.069846 27.3705 0.0582893 27.3723 0.0360911C27.3742 0.0138929 27.3805 0.0032514 27.3915 0.00416655L27.6763 0.0335097C27.8365 0.0543311 27.9679 0.0690125 28.0702 0.0775538C28.1836 0.0870103 28.321 0.0947499 28.4825 0.100773L28.7572 0.118102C28.7682 0.119017 28.7727 0.130574 28.7709 0.152772C28.7691 0.17497 28.7627 0.185611 28.7518 0.184696C28.6311 0.17463 28.5406 0.178255 28.4803 0.195573C28.4236 0.213195 28.3821 0.248839 28.3556 0.302505C28.3331 0.352775 28.3173 0.433406 28.3083 0.544397L28.0998 3.10275Z" fill="url(#paint28_linear)"/>
<path d="M32.0158 0.604793C32.1774 0.638908 32.3414 0.688696 32.5078 0.754158C32.6778 0.820377 32.8078 0.889539 32.8979 0.961642C32.928 0.979367 32.9448 0.998073 32.9482 1.01776C32.956 1.03457 32.9575 1.06334 32.9529 1.10407L32.8714 1.82636C32.8692 1.83726 32.8587 1.84263 32.84 1.84247C32.8213 1.84232 32.8116 1.83459 32.811 1.8193C32.7653 1.51386 32.6519 1.26428 32.4707 1.07055C32.2931 0.877587 32.0625 0.751159 31.7787 0.691269C31.4052 0.612425 31.0851 0.683282 30.8185 0.903838C30.5519 1.12439 30.3726 1.45816 30.2804 1.90515C30.2115 2.23948 30.2056 2.55869 30.2629 2.86277C30.3237 3.1676 30.4396 3.42339 30.6106 3.63014C30.7852 3.83764 31 3.9683 31.255 4.02213C31.7399 4.12447 32.1709 3.89692 32.5482 3.33947C32.5548 3.32569 32.5667 3.32252 32.5839 3.32994C32.6047 3.33812 32.614 3.34767 32.6117 3.35857L32.3871 4.03924C32.3709 4.08134 32.3559 4.10851 32.3422 4.12078C32.3327 4.13016 32.3104 4.13871 32.275 4.14642C31.9363 4.20766 31.591 4.20113 31.239 4.12683C30.8009 4.03435 30.4543 3.87018 30.1994 3.63434C29.9452 3.39487 29.7761 3.12407 29.6922 2.82195C29.612 2.52059 29.6022 2.22273 29.6629 1.92838C29.7333 1.58678 29.8874 1.30267 30.1253 1.07605C30.3667 0.850185 30.6551 0.696793 30.9904 0.615871C31.3256 0.534949 31.6674 0.531257 32.0158 0.604793Z" fill="url(#paint29_linear)"/>
<path d="M34.7957 5.22896C34.4783 5.10235 34.2239 4.9151 34.0326 4.66721C33.846 4.41723 33.7343 4.13722 33.6973 3.8272C33.6651 3.51508 33.7082 3.20707 33.8266 2.90315C33.9652 2.54743 34.1724 2.27891 34.4481 2.09759C34.7251 1.91282 35.0268 1.81168 35.353 1.79417C35.6827 1.77802 35.9926 1.82781 36.2827 1.94354C36.607 2.07287 36.8617 2.26426 37.0469 2.51769C37.2335 2.76768 37.3425 3.04459 37.374 3.34844C37.4088 3.65365 37.3711 3.94785 37.2608 4.23105C37.1384 4.54532 36.9441 4.80103 36.678 4.99815C36.4119 5.19528 36.111 5.31468 35.7753 5.35636C35.4431 5.3994 35.1165 5.35694 34.7957 5.22896ZM35.0182 5.17407C35.223 5.25575 35.4271 5.27333 35.6306 5.2268C35.8388 5.17818 36.0314 5.06347 36.2083 4.88265C36.3887 4.70319 36.5374 4.46323 36.6544 4.16277C36.7782 3.84503 36.8363 3.53901 36.8287 3.24469C36.8246 2.95174 36.7528 2.69566 36.6134 2.47646C36.4774 2.25862 36.2797 2.09797 36.0203 1.9945C35.6893 1.86244 35.3845 1.88053 35.106 2.04876C34.8322 2.2149 34.6126 2.51037 34.4471 2.93516C34.3193 3.26326 34.2565 3.58137 34.2587 3.8895C34.2643 4.19899 34.3314 4.46716 34.4599 4.694C34.5932 4.91874 34.7793 5.07877 35.0182 5.17407Z" fill="url(#paint30_linear)"/>
<path d="M42.3041 5.25845C42.3104 5.26235 42.3077 5.27378 42.2962 5.29274C42.2846 5.31171 42.2757 5.31924 42.2695 5.31535C42.1445 5.23749 42.0198 5.22298 41.8953 5.27182C41.7727 5.3175 41.6604 5.42411 41.5584 5.59164L40.0665 8.04296C40.0607 8.05244 40.0491 8.05389 40.0315 8.04732C40.014 8.04075 40.004 8.03236 40.0016 8.02214L39.3766 4.06863L38.2021 5.99839C38.1001 6.16592 38.055 6.31438 38.0668 6.44376C38.0785 6.57315 38.1468 6.67677 38.2718 6.75464C38.278 6.75853 38.2754 6.76996 38.2639 6.78893C38.2523 6.80789 38.2434 6.81543 38.2372 6.81153C38.1528 6.75898 38.0897 6.71749 38.0479 6.68708L37.8025 6.52758L37.5231 6.36005C37.4712 6.33206 37.3984 6.28887 37.3047 6.23047C37.2953 6.22463 37.2964 6.21223 37.3079 6.19327C37.3195 6.1743 37.3299 6.16774 37.3393 6.17358C37.4736 6.25728 37.6037 6.27727 37.7294 6.23353C37.8582 6.19174 37.9736 6.08708 38.0756 5.91955L39.3395 3.8428C39.3098 3.69347 39.2705 3.57745 39.2218 3.49475C39.1761 3.41399 39.1158 3.35026 39.0408 3.30354C39.0346 3.29964 39.0372 3.28821 39.0488 3.26925C39.0603 3.25028 39.0692 3.24275 39.0755 3.24664L39.26 3.36818C39.2987 3.39664 39.3555 3.43424 39.4305 3.48096L39.7333 3.66309C39.7727 3.68329 39.819 3.70993 39.8721 3.74302C39.8971 3.7586 39.912 3.7766 39.9168 3.79703C39.9216 3.81746 39.9249 3.85443 39.9268 3.90793C39.9357 4.01372 39.944 4.08863 39.9516 4.13265L40.4103 7.19127L41.4319 5.5128C41.5339 5.34527 41.579 5.19681 41.5672 5.06742C41.5574 4.93488 41.4916 4.83065 41.3698 4.75473C41.3635 4.75084 41.3662 4.73941 41.3777 4.72044C41.3893 4.70148 41.3981 4.69394 41.4044 4.69783L41.5936 4.82229C41.6898 4.8909 41.7706 4.94565 41.8362 4.98653C41.8987 5.02546 41.985 5.07486 42.095 5.13472L42.3041 5.25845Z" fill="url(#paint31_linear)"/>
<path d="M41.993 8.91669C41.9213 9.00602 41.8763 9.07672 41.8582 9.12876C41.8401 9.18081 41.8466 9.23159 41.8777 9.2811C41.9117 9.33295 41.9772 9.39865 42.074 9.47821C42.0826 9.48523 42.0799 9.49739 42.066 9.51468C42.0521 9.53197 42.0409 9.53711 42.0324 9.53009C41.9412 9.45521 41.8698 9.39409 41.818 9.34675L41.5053 9.08268L41.1942 8.83428C41.1378 8.7927 41.0626 8.7333 40.9686 8.65608C40.96 8.64906 40.9627 8.63691 40.9766 8.61962C40.9905 8.60232 41.0017 8.59719 41.0102 8.60421C41.1071 8.68377 41.1826 8.7339 41.2369 8.75459C41.294 8.77762 41.3473 8.77598 41.3968 8.74968C41.4486 8.72049 41.5092 8.66267 41.5785 8.57621L43.1847 6.57476C43.2541 6.48831 43.2964 6.41788 43.3117 6.3635C43.327 6.30911 43.3176 6.25599 43.2836 6.20414C43.2548 6.15175 43.1919 6.08577 43.0951 6.00621C43.0866 5.99919 43.0892 5.98704 43.1031 5.96975C43.117 5.95246 43.1282 5.94732 43.1367 5.95434L43.3554 6.14119C43.4761 6.24991 43.5763 6.33703 43.6561 6.40256C43.7444 6.4751 43.8535 6.55997 43.9834 6.65717L44.2005 6.82834C44.2091 6.83537 44.2064 6.84752 44.1925 6.86481C44.1786 6.8821 44.1674 6.88724 44.1589 6.88022C44.0649 6.803 43.9882 6.75431 43.9287 6.73416C43.8721 6.71635 43.8179 6.72204 43.7662 6.75123C43.7195 6.77988 43.6615 6.83743 43.5922 6.92388L41.993 8.91669Z" fill="url(#paint32_linear)"/>
<path d="M46.6189 9.09113C46.7333 9.21159 46.8409 9.34636 46.9418 9.49543C47.0452 9.64718 47.1139 9.77853 47.1481 9.88949C47.163 9.9213 47.1664 9.94631 47.1583 9.96453C47.1553 9.98285 47.1405 10.0075 47.114 10.0385L46.6438 10.5882C46.6359 10.5959 46.6243 10.5943 46.6089 10.5835C46.5935 10.5727 46.5899 10.5608 46.5979 10.5479C46.7306 10.2696 46.7761 9.9988 46.7346 9.73541C46.6957 9.47469 46.5758 9.2386 46.375 9.02712C46.1107 8.74872 45.8069 8.62442 45.4638 8.65423C45.1207 8.68404 44.7865 8.85711 44.4611 9.17346C44.2177 9.41008 44.0348 9.67024 43.9124 9.95394C43.7926 10.2403 43.7455 10.5177 43.7714 10.786C43.7998 11.057 43.9042 11.2875 44.0846 11.4776C44.4278 11.839 44.9106 11.8973 45.533 11.6526C45.5461 11.645 45.5577 11.6492 45.5677 11.6651C45.5804 11.6838 45.5827 11.697 45.5747 11.7047L45.0096 12.1382C44.9728 12.1638 44.9452 12.1776 44.927 12.1799C44.914 12.1823 44.8908 12.1765 44.8573 12.1627C44.5436 12.0199 44.2622 11.8172 44.0131 11.5549C43.703 11.2283 43.5084 10.8949 43.4296 10.5546C43.3533 10.2117 43.3648 9.89165 43.4641 9.59436C43.5659 9.29974 43.724 9.04827 43.9383 8.83994C44.187 8.59818 44.4727 8.45169 44.7955 8.40046C45.1208 8.35191 45.4444 8.38997 45.7663 8.51464C46.0882 8.6393 46.3724 8.83147 46.6189 9.09113Z" fill="url(#paint33_linear)"/>
<defs>
<linearGradient id="paint0_linear" x1="1.36377e-07" y1="14" x2="53.7329" y2="14.9322" gradientUnits="userSpaceOnUse">
<stop stop-color="#FFD873"/>
<stop offset="0.334389" stop-color="#FCC260"/>
<stop offset="0.65303" stop-color="#FEF4A4"/>
<stop offset="1" stop-color="#DFB65C"/>
</linearGradient>
<linearGradient id="paint1_linear" x1="1.36377e-07" y1="14" x2="53.7329" y2="14.9322" gradientUnits="userSpaceOnUse">
<stop stop-color="#FFD873"/>
<stop offset="0.334389" stop-color="#FCC260"/>
<stop offset="0.65303" stop-color="#FEF4A4"/>
<stop offset="1" stop-color="#DFB65C"/>
</linearGradient>
<linearGradient id="paint2_linear" x1="1.36377e-07" y1="14" x2="53.7329" y2="14.9322" gradientUnits="userSpaceOnUse">
<stop stop-color="#FFD873"/>
<stop offset="0.334389" stop-color="#FCC260"/>
<stop offset="0.65303" stop-color="#FEF4A4"/>
<stop offset="1" stop-color="#DFB65C"/>
</linearGradient>
<linearGradient id="paint3_linear" x1="1.36377e-07" y1="14" x2="53.7329" y2="14.9322" gradientUnits="userSpaceOnUse">
<stop stop-color="#FFD873"/>
<stop offset="0.334389" stop-color="#FCC260"/>
<stop offset="0.65303" stop-color="#FEF4A4"/>
<stop offset="1" stop-color="#DFB65C"/>
</linearGradient>
<linearGradient id="paint4_linear" x1="1.36377e-07" y1="14" x2="53.7329" y2="14.9322" gradientUnits="userSpaceOnUse">
<stop stop-color="#FFD873"/>
<stop offset="0.334389" stop-color="#FCC260"/>
<stop offset="0.65303" stop-color="#FEF4A4"/>
<stop offset="1" stop-color="#DFB65C"/>
</linearGradient>
<linearGradient id="paint5_linear" x1="1.36377e-07" y1="14" x2="53.7329" y2="14.9322" gradientUnits="userSpaceOnUse">
<stop stop-color="#FFD873"/>
<stop offset="0.334389" stop-color="#FCC260"/>
<stop offset="0.65303" stop-color="#FEF4A4"/>
<stop offset="1" stop-color="#DFB65C"/>
</linearGradient>
<linearGradient id="paint6_linear" x1="1.36377e-07" y1="14" x2="53.7329" y2="14.9322" gradientUnits="userSpaceOnUse">
<stop stop-color="#FFD873"/>
<stop offset="0.334389" stop-color="#FCC260"/>
<stop offset="0.65303" stop-color="#FEF4A4"/>
<stop offset="1" stop-color="#DFB65C"/>
</linearGradient>
<linearGradient id="paint7_linear" x1="1.36377e-07" y1="14" x2="53.7329" y2="14.9322" gradientUnits="userSpaceOnUse">
<stop stop-color="#FFD873"/>
<stop offset="0.334389" stop-color="#FCC260"/>
<stop offset="0.65303" stop-color="#FEF4A4"/>
<stop offset="1" stop-color="#DFB65C"/>
</linearGradient>
<linearGradient id="paint8_linear" x1="1.36377e-07" y1="14" x2="53.7329" y2="14.9322" gradientUnits="userSpaceOnUse">
<stop stop-color="#FFD873"/>
<stop offset="0.334389" stop-color="#FCC260"/>
<stop offset="0.65303" stop-color="#FEF4A4"/>
<stop offset="1" stop-color="#DFB65C"/>
</linearGradient>
<linearGradient id="paint9_linear" x1="1.36377e-07" y1="14" x2="53.7329" y2="14.9322" gradientUnits="userSpaceOnUse">
<stop stop-color="#FFD873"/>
<stop offset="0.334389" stop-color="#FCC260"/>
<stop offset="0.65303" stop-color="#FEF4A4"/>
<stop offset="1" stop-color="#DFB65C"/>
</linearGradient>
<linearGradient id="paint10_linear" x1="1.36377e-07" y1="14" x2="53.7329" y2="14.9322" gradientUnits="userSpaceOnUse">
<stop stop-color="#FFD873"/>
<stop offset="0.334389" stop-color="#FCC260"/>
<stop offset="0.65303" stop-color="#FEF4A4"/>
<stop offset="1" stop-color="#DFB65C"/>
</linearGradient>
<linearGradient id="paint11_linear" x1="1.36377e-07" y1="14" x2="53.7329" y2="14.9322" gradientUnits="userSpaceOnUse">
<stop stop-color="#FFD873"/>
<stop offset="0.334389" stop-color="#FCC260"/>
<stop offset="0.65303" stop-color="#FEF4A4"/>
<stop offset="1" stop-color="#DFB65C"/>
</linearGradient>
<linearGradient id="paint12_linear" x1="1.36377e-07" y1="14" x2="53.7329" y2="14.9322" gradientUnits="userSpaceOnUse">
<stop stop-color="#FFD873"/>
<stop offset="0.334389" stop-color="#FCC260"/>
<stop offset="0.65303" stop-color="#FEF4A4"/>
<stop offset="1" stop-color="#DFB65C"/>
</linearGradient>
<linearGradient id="paint13_linear" x1="1.36377e-07" y1="14" x2="53.7329" y2="14.9322" gradientUnits="userSpaceOnUse">
<stop stop-color="#FFD873"/>
<stop offset="0.334389" stop-color="#FCC260"/>
<stop offset="0.65303" stop-color="#FEF4A4"/>
<stop offset="1" stop-color="#DFB65C"/>
</linearGradient>
<linearGradient id="paint14_linear" x1="1.36377e-07" y1="14" x2="53.7329" y2="14.9322" gradientUnits="userSpaceOnUse">
<stop stop-color="#FFD873"/>
<stop offset="0.334389" stop-color="#FCC260"/>
<stop offset="0.65303" stop-color="#FEF4A4"/>
<stop offset="1" stop-color="#DFB65C"/>
</linearGradient>
<linearGradient id="paint15_linear" x1="1.36377e-07" y1="14" x2="53.7329" y2="14.9322" gradientUnits="userSpaceOnUse">
<stop stop-color="#FFD873"/>
<stop offset="0.334389" stop-color="#FCC260"/>
<stop offset="0.65303" stop-color="#FEF4A4"/>
<stop offset="1" stop-color="#DFB65C"/>
</linearGradient>
<linearGradient id="paint16_linear" x1="1.36377e-07" y1="14" x2="53.7329" y2="14.9322" gradientUnits="userSpaceOnUse">
<stop stop-color="#FFD873"/>
<stop offset="0.334389" stop-color="#FCC260"/>
<stop offset="0.65303" stop-color="#FEF4A4"/>
<stop offset="1" stop-color="#DFB65C"/>
</linearGradient>
<linearGradient id="paint17_linear" x1="1.36377e-07" y1="14" x2="53.7329" y2="14.9322" gradientUnits="userSpaceOnUse">
<stop stop-color="#FFD873"/>
<stop offset="0.334389" stop-color="#FCC260"/>
<stop offset="0.65303" stop-color="#FEF4A4"/>
<stop offset="1" stop-color="#DFB65C"/>
</linearGradient>
<linearGradient id="paint18_linear" x1="1.36377e-07" y1="14" x2="53.7329" y2="14.9322" gradientUnits="userSpaceOnUse">
<stop stop-color="#FFD873"/>
<stop offset="0.334389" stop-color="#FCC260"/>
<stop offset="0.65303" stop-color="#FEF4A4"/>
<stop offset="1" stop-color="#DFB65C"/>
</linearGradient>
<linearGradient id="paint19_linear" x1="1.36377e-07" y1="14" x2="53.7329" y2="14.9322" gradientUnits="userSpaceOnUse">
<stop stop-color="#FFD873"/>
<stop offset="0.334389" stop-color="#FCC260"/>
<stop offset="0.65303" stop-color="#FEF4A4"/>
<stop offset="1" stop-color="#DFB65C"/>
</linearGradient>
<linearGradient id="paint20_linear" x1="1.36377e-07" y1="14" x2="53.7329" y2="14.9322" gradientUnits="userSpaceOnUse">
<stop stop-color="#FFD873"/>
<stop offset="0.334389" stop-color="#FCC260"/>
<stop offset="0.65303" stop-color="#FEF4A4"/>
<stop offset="1" stop-color="#DFB65C"/>
</linearGradient>
<linearGradient id="paint21_linear" x1="1.36377e-07" y1="14" x2="53.7329" y2="14.9322" gradientUnits="userSpaceOnUse">
<stop stop-color="#FFD873"/>
<stop offset="0.334389" stop-color="#FCC260"/>
<stop offset="0.65303" stop-color="#FEF4A4"/>
<stop offset="1" stop-color="#DFB65C"/>
</linearGradient>
<linearGradient id="paint22_linear" x1="1.36377e-07" y1="14" x2="53.7329" y2="14.9322" gradientUnits="userSpaceOnUse">
<stop stop-color="#FFD873"/>
<stop offset="0.334389" stop-color="#FCC260"/>
<stop offset="0.65303" stop-color="#FEF4A4"/>
<stop offset="1" stop-color="#DFB65C"/>
</linearGradient>
<linearGradient id="paint23_linear" x1="1.36377e-07" y1="14" x2="53.7329" y2="14.9322" gradientUnits="userSpaceOnUse">
<stop stop-color="#FFD873"/>
<stop offset="0.334389" stop-color="#FCC260"/>
<stop offset="0.65303" stop-color="#FEF4A4"/>
<stop offset="1" stop-color="#DFB65C"/>
</linearGradient>
<linearGradient id="paint24_linear" x1="1.36377e-07" y1="14" x2="53.7329" y2="14.9322" gradientUnits="userSpaceOnUse">
<stop stop-color="#FFD873"/>
<stop offset="0.334389" stop-color="#FCC260"/>
<stop offset="0.65303" stop-color="#FEF4A4"/>
<stop offset="1" stop-color="#DFB65C"/>
</linearGradient>
<linearGradient id="paint25_linear" x1="1.36377e-07" y1="14" x2="53.7329" y2="14.9322" gradientUnits="userSpaceOnUse">
<stop stop-color="#FFD873"/>
<stop offset="0.334389" stop-color="#FCC260"/>
<stop offset="0.65303" stop-color="#FEF4A4"/>
<stop offset="1" stop-color="#DFB65C"/>
</linearGradient>
<linearGradient id="paint26_linear" x1="1.36377e-07" y1="14" x2="53.7329" y2="14.9322" gradientUnits="userSpaceOnUse">
<stop stop-color="#FFD873"/>
<stop offset="0.334389" stop-color="#FCC260"/>
<stop offset="0.65303" stop-color="#FEF4A4"/>
<stop offset="1" stop-color="#DFB65C"/>
</linearGradient>
<linearGradient id="paint27_linear" x1="1.36377e-07" y1="14" x2="53.7329" y2="14.9322" gradientUnits="userSpaceOnUse">
<stop stop-color="#FFD873"/>
<stop offset="0.334389" stop-color="#FCC260"/>
<stop offset="0.65303" stop-color="#FEF4A4"/>
<stop offset="1" stop-color="#DFB65C"/>
</linearGradient>
<linearGradient id="paint28_linear" x1="1.36377e-07" y1="14" x2="53.7329" y2="14.9322" gradientUnits="userSpaceOnUse">
<stop stop-color="#FFD873"/>
<stop offset="0.334389" stop-color="#FCC260"/>
<stop offset="0.65303" stop-color="#FEF4A4"/>
<stop offset="1" stop-color="#DFB65C"/>
</linearGradient>
<linearGradient id="paint29_linear" x1="1.36377e-07" y1="14" x2="53.7329" y2="14.9322" gradientUnits="userSpaceOnUse">
<stop stop-color="#FFD873"/>
<stop offset="0.334389" stop-color="#FCC260"/>
<stop offset="0.65303" stop-color="#FEF4A4"/>
<stop offset="1" stop-color="#DFB65C"/>
</linearGradient>
<linearGradient id="paint30_linear" x1="1.36377e-07" y1="14" x2="53.7329" y2="14.9322" gradientUnits="userSpaceOnUse">
<stop stop-color="#FFD873"/>
<stop offset="0.334389" stop-color="#FCC260"/>
<stop offset="0.65303" stop-color="#FEF4A4"/>
<stop offset="1" stop-color="#DFB65C"/>
</linearGradient>
<linearGradient id="paint31_linear" x1="1.36377e-07" y1="14" x2="53.7329" y2="14.9322" gradientUnits="userSpaceOnUse">
<stop stop-color="#FFD873"/>
<stop offset="0.334389" stop-color="#FCC260"/>
<stop offset="0.65303" stop-color="#FEF4A4"/>
<stop offset="1" stop-color="#DFB65C"/>
</linearGradient>
<linearGradient id="paint32_linear" x1="1.36377e-07" y1="14" x2="53.7329" y2="14.9322" gradientUnits="userSpaceOnUse">
<stop stop-color="#FFD873"/>
<stop offset="0.334389" stop-color="#FCC260"/>
<stop offset="0.65303" stop-color="#FEF4A4"/>
<stop offset="1" stop-color="#DFB65C"/>
</linearGradient>
<linearGradient id="paint33_linear" x1="1.36377e-07" y1="14" x2="53.7329" y2="14.9322" gradientUnits="userSpaceOnUse">
<stop stop-color="#FFD873"/>
<stop offset="0.334389" stop-color="#FCC260"/>
<stop offset="0.65303" stop-color="#FEF4A4"/>
<stop offset="1" stop-color="#DFB65C"/>
</linearGradient>
</defs>
</svg>
