<svg width="19" height="18" viewBox="0 0 19 18" fill="none" xmlns="http://www.w3.org/2000/svg">
<g opacity="0.6" clip-path="url(#clip0)">
<path d="M12.168 12L9.16797 9L6.16797 12" stroke="white" stroke-width="2" stroke-linecap="round" stroke-linejoin="round"/>
<path d="M9.16797 9V15.75" stroke="white" stroke-width="1.4" stroke-linecap="round" stroke-linejoin="round"/>
<path d="M15.4606 13.7926C16.1921 13.3938 16.7699 12.7628 17.103 11.9991C17.436 11.2354 17.5052 10.3825 17.2997 9.57513C17.0942 8.76772 16.6257 8.05174 15.9681 7.54019C15.3105 7.02865 14.5012 6.75066 13.6681 6.75011H12.7231C12.496 5.87204 12.0729 5.05686 11.4855 4.36585C10.8981 3.67485 10.1617 3.126 9.33164 2.76057C8.50158 2.39513 7.59947 2.22263 6.69315 2.25602C5.78682 2.28941 4.89986 2.52784 4.09894 2.95336C3.29803 3.37888 2.60399 3.98044 2.06903 4.7128C1.53406 5.44516 1.17208 6.28926 1.0103 7.18166C0.848513 8.07405 0.89114 8.99151 1.13497 9.86505C1.3788 10.7386 1.81749 11.5455 2.41806 12.2251" stroke="white" stroke-width="1.4" stroke-linecap="round" stroke-linejoin="round"/>
<path d="M12.168 12L9.16797 9L6.16797 12" stroke="white" stroke-width="1.4" stroke-linecap="round" stroke-linejoin="round"/>
</g>
<defs>
<clipPath id="clip0">
<rect width="18" height="18" fill="white" transform="translate(0.167969)"/>
</clipPath>
</defs>
</svg>
