<svg width="60" height="61" viewBox="0 0 60 61" fill="none" xmlns="http://www.w3.org/2000/svg">
<path d="M52.2857 11.8323H45.8464C45.7328 11.8323 45.6238 11.7872 45.5434 11.7068C45.463 11.6264 45.4179 11.5174 45.4179 11.4037V10.1095C45.4156 9.20163 45.0534 8.33176 44.4106 7.69063C43.7679 7.0495 42.8971 6.68945 41.9893 6.68945L18.0118 6.71731C17.1049 6.71901 16.2356 7.07995 15.5942 7.72113C14.9528 8.36231 14.5916 9.23148 14.5896 10.1384V11.4037C14.5896 11.5174 14.5445 11.6264 14.4641 11.7068C14.3837 11.7872 14.2747 11.8323 14.1611 11.8323H7.71429C7.25963 11.8323 6.82359 12.0129 6.5021 12.3344C6.18061 12.6559 6 13.0919 6 13.5466V15.2609C6 21.1034 9.21429 27.3091 14.1986 28.6912C14.346 28.7323 14.4793 28.8129 14.5841 28.9243C14.6889 29.0358 14.7613 29.1738 14.7932 29.3234C15.4114 32.2045 17.3132 34.9484 20.3014 37.2102C22.5418 38.9062 25.2139 40.1566 27.6161 40.6902C27.806 40.7327 27.9758 40.8387 28.0975 40.9906C28.2192 41.1425 28.2856 41.3312 28.2857 41.5259V50.8323C28.2857 50.946 28.2406 51.055 28.1602 51.1354C28.0798 51.2157 27.9708 51.2609 27.8571 51.2609H21.4768C20.5543 51.2609 19.7625 51.9702 19.7164 52.8927C19.7053 53.1245 19.7413 53.3561 19.8223 53.5736C19.9033 53.791 20.0276 53.9898 20.1877 54.1578C20.3477 54.3258 20.5403 54.4595 20.7536 54.5509C20.9669 54.6423 21.1965 54.6894 21.4286 54.6895H38.5232C39.4457 54.6895 40.2375 53.9802 40.2836 53.0577C40.2947 52.8259 40.2587 52.5942 40.1777 52.3768C40.0967 52.1593 39.9724 51.9606 39.8123 51.7926C39.6523 51.6246 39.4597 51.4908 39.2464 51.3994C39.0331 51.308 38.8035 51.2609 38.5714 51.2609H32.1429C32.0292 51.2609 31.9202 51.2157 31.8398 51.1354C31.7594 51.055 31.7143 50.946 31.7143 50.8323V41.5259C31.7144 41.3312 31.7808 41.1425 31.9025 40.9906C32.0242 40.8387 32.194 40.7327 32.3839 40.6902C34.7861 40.1545 37.4582 38.9062 39.6986 37.2102C42.6868 34.9484 44.5886 32.2045 45.2068 29.3234C45.2387 29.1738 45.3111 29.0358 45.4159 28.9243C45.5207 28.8129 45.654 28.7323 45.8014 28.6912C50.7857 27.3091 54 21.1034 54 15.2609V13.5466C54 13.0919 53.8194 12.6559 53.4979 12.3344C53.1764 12.0129 52.7404 11.8323 52.2857 11.8323ZM14.5714 24.4987C14.5712 24.5738 14.5512 24.6476 14.5134 24.7125C14.4757 24.7774 14.4216 24.8313 14.3565 24.8688C14.2914 24.9062 14.2176 24.9259 14.1425 24.9258C14.0674 24.9257 13.9936 24.9059 13.9286 24.8684C12.8293 24.2137 12.0268 23.2216 11.5564 22.523C10.2804 20.6277 9.52071 18.1655 9.43607 15.7055C9.43391 15.6479 9.4434 15.5904 9.46396 15.5366C9.48453 15.4827 9.51576 15.4335 9.55577 15.392C9.59578 15.3505 9.64376 15.3175 9.69684 15.295C9.74991 15.2724 9.80698 15.2608 9.86464 15.2609H14.1504C14.264 15.2609 14.373 15.306 14.4534 15.3864C14.5338 15.4668 14.5789 15.5758 14.5789 15.6895C14.5768 18.6305 14.5714 21.997 14.5714 24.4987ZM48.4425 22.523C47.9721 23.2216 47.1707 24.2137 46.0714 24.8684C46.0063 24.906 45.9324 24.9258 45.8573 24.9258C45.7821 24.9258 45.7082 24.9061 45.643 24.8685C45.5779 24.8309 45.5238 24.7769 45.4862 24.7118C45.4485 24.6467 45.4286 24.5729 45.4286 24.4977C45.4286 21.6573 45.4286 18.4302 45.4232 15.6895C45.4232 15.5758 45.4684 15.4668 45.5487 15.3864C45.6291 15.306 45.7381 15.2609 45.8518 15.2609H50.1375C50.1952 15.2608 50.2522 15.2724 50.3053 15.295C50.3584 15.3175 50.4064 15.3505 50.4464 15.392C50.4864 15.4335 50.5176 15.4827 50.5382 15.5366C50.5587 15.5904 50.5682 15.6479 50.5661 15.7055C50.4814 18.1655 49.7196 20.6277 48.4436 22.523H48.4425Z" fill="url(#paint0_linear)"/>
<defs>
<linearGradient id="paint0_linear" x1="6" y1="19.6125" x2="55.5996" y2="20.473" gradientUnits="userSpaceOnUse">
<stop stop-color="#FFD873"/>
<stop offset="0.334389" stop-color="#FCC260"/>
<stop offset="0.65303" stop-color="#FEF4A4"/>
<stop offset="1" stop-color="#DFB65C"/>
</linearGradient>
</defs>
</svg>
