<svg width="60" height="61" viewBox="0 0 60 61" fill="none" xmlns="http://www.w3.org/2000/svg">
<path d="M51.7881 11.3416C51.4246 11.0528 50.999 10.8521 50.5449 10.7554C50.0907 10.6586 49.6204 10.6685 49.1707 10.7841L32.3994 15.0988V49.6895L50.7217 44.9869C51.3771 44.8191 51.9574 44.4368 52.3703 43.9008C52.7832 43.3649 53.0048 42.7061 52.9999 42.0296V13.7172C52.9925 13.255 52.8794 12.8006 52.6694 12.3889C52.4593 11.9771 52.1579 11.6189 51.7881 11.3416ZM27.5522 15.0988L10.7326 10.7841C10.2897 10.6816 9.82973 10.6784 9.38555 10.7748C8.94136 10.8712 8.52404 11.0648 8.16355 11.3416C7.7962 11.6289 7.50011 11.9971 7.29833 12.4175C7.09656 12.8379 6.99454 13.2993 7.00023 13.7656V42.0296C7.00074 42.702 7.22487 43.3551 7.63731 43.8862C8.04976 44.4172 8.6271 44.7959 9.2784 44.9626L27.5522 49.6895V15.0988Z" fill="url(#paint0_linear)"/>
<defs>
<linearGradient id="paint0_linear" x1="7" y1="21.1894" x2="54.5274" y2="22.162" gradientUnits="userSpaceOnUse">
<stop stop-color="#FFD873"/>
<stop offset="0.334389" stop-color="#FCC260"/>
<stop offset="0.65303" stop-color="#FEF4A4"/>
<stop offset="1" stop-color="#DFB65C"/>
</linearGradient>
</defs>
</svg>
